<?xml version="1.0" standalone="no"?>
<!DOCTYPE svg PUBLIC "-//W3C//DTD SVG 20010904//EN"
 "http://www.w3.org/TR/2001/REC-SVG-20010904/DTD/svg10.dtd">
<svg version="1.0" xmlns="http://www.w3.org/2000/svg"
 width="800.000000pt" height="800.000000pt" viewBox="0 0 800.000000 800.000000"
 preserveAspectRatio="xMidYMid meet">
<metadata>
Created by potrace 1.14, written by Peter Selinger 2001-2017
</metadata>
<g transform="translate(0.000000,800.000000) scale(0.100000,-0.100000)"
fill="#000000" stroke="none">
<path d="M0 5254 c0 -1873 3 -2751 10 -2765 7 -13 7 -19 0 -19 -5 0 -10 -7
-10 -16 0 -8 4 -13 9 -9 5 3 12 1 15 -4 3 -5 -1 -11 -9 -15 -10 -4 -15 -19
-15 -48 1 -43 1 -43 15 -18 14 23 14 20 8 -45 -3 -38 -11 -74 -17 -78 -7 -6
-5 -7 6 -4 12 4 18 -2 23 -25 5 -20 10 -26 15 -18 10 17 50 3 50 -18 0 -15 2
-15 10 -2 8 11 9 7 4 -14 -5 -19 -2 -31 7 -37 9 -5 1 -8 -24 -7 -31 1 -43 -5
-67 -32 -24 -27 -30 -43 -30 -81 0 -53 12 -63 73 -58 40 3 90 -23 140 -72 21
-22 44 -39 51 -39 13 0 116 94 116 105 0 4 -9 4 -20 0 -35 -11 -119 48 -100
70 8 9 4 14 -15 19 -14 4 -30 4 -35 1 -6 -4 -10 1 -10 9 0 8 -7 19 -16 24 -15
8 -15 10 1 16 20 7 38 -1 30 -15 -3 -5 1 -6 10 -3 29 11 -15 34 -53 28 -20 -4
-32 -2 -32 5 0 6 7 8 16 4 14 -5 15 -3 5 16 -10 17 -9 22 4 27 9 4 19 4 22 0
4 -3 -2 -6 -13 -6 -11 0 2 -11 30 -25 26 -13 53 -28 60 -33 10 -8 47 -20 85
-28 7 -1 18 -7 24 -13 16 -16 34 -13 54 8 21 22 61 33 69 20 3 -6 24 -21 46
-35 30 -20 37 -29 29 -37 -9 -9 -14 -8 -21 3 -8 13 -10 12 -10 -2 0 -10 -7
-18 -15 -18 -8 0 -15 -7 -15 -15 0 -8 5 -15 11 -15 5 0 7 -5 3 -12 -5 -8 -11
-6 -19 5 -14 19 -35 23 -35 6 0 -6 -9 -9 -20 -6 -11 3 -18 1 -14 -4 3 -5 12
-9 20 -9 9 0 12 -5 8 -11 -5 -9 7 -10 47 -4 30 4 65 8 79 9 15 1 26 8 28 19 4
19 -13 23 -23 7 -5 -8 -11 -8 -20 0 -11 9 -10 15 7 32 11 11 21 18 22 16 1 -1
10 -19 19 -39 9 -20 24 -40 33 -43 23 -9 31 -7 14 4 -23 14 11 23 43 11 32
-12 35 -40 8 -65 -19 -17 -20 -17 -38 3 -9 12 -23 21 -30 21 -7 0 -13 7 -13
15 0 13 -4 14 -21 4 -12 -6 -34 -8 -50 -5 -27 5 -42 -8 -19 -16 7 -2 7 -13 0
-35 -14 -39 -63 -51 -85 -20 -12 17 -12 22 1 35 18 17 13 25 -10 16 -14 -5
-17 -16 -14 -45 4 -43 1 -47 -17 -23 -15 22 -55 10 -55 -17 0 -23 -13 -24 -34
-3 -15 14 -16 13 -16 -11 0 -23 4 -27 22 -22 13 2 31 8 42 12 14 6 17 5 14 -6
-3 -8 -13 -13 -23 -11 -11 2 -15 -2 -12 -10 2 -7 14 -12 26 -11 32 4 26 -25
-7 -30 l-27 -4 28 -2 c15 0 34 5 41 12 12 10 12 15 -1 28 -13 15 -11 19 15 38
39 27 50 26 58 -4 5 -21 11 -24 44 -22 29 1 42 8 49 24 7 16 7 24 -1 29 -7 5
-1 15 17 30 24 19 32 20 59 11 l31 -11 -25 -7 -25 -7 26 -1 c26 -1 39 -17 39
-48 0 -9 6 -21 14 -27 12 -10 66 -140 66 -160 0 -4 -8 -5 -17 -1 -15 5 -16 4
-5 -6 6 -7 12 -20 12 -28 0 -10 -7 -8 -25 9 -21 20 -25 21 -31 6 -3 -9 -15
-16 -25 -16 -17 0 -18 -3 -9 -21 9 -16 8 -26 -4 -44 -9 -14 -16 -36 -16 -50 0
-14 -4 -25 -10 -25 -5 0 -10 7 -10 15 0 13 -3 13 -20 3 -11 -7 -20 -20 -20
-28 0 -13 -1 -13 -10 0 -6 10 -4 20 8 33 14 15 14 21 3 39 -7 11 -9 23 -4 27
13 10 9 35 -7 43 -13 6 -13 7 1 7 19 1 35 33 44 86 4 22 12 43 18 47 9 6 9 8
0 8 -6 0 -9 9 -6 20 6 21 -11 28 -23 8 -5 -7 -3 -8 6 -3 9 6 11 4 5 -5 -6 -10
-11 -9 -22 5 -9 14 -13 15 -13 4 0 -8 -9 -20 -20 -27 -12 -7 -18 -17 -15 -22
4 -6 11 -8 16 -5 5 4 9 1 9 -4 0 -10 -29 -16 -53 -12 -5 1 -6 -3 -2 -9 3 -5 0
-10 -7 -10 -10 0 -10 -2 1 -9 11 -7 11 -9 0 -14 -10 -4 -10 -6 -1 -6 6 -1 12
-8 12 -16 0 -8 -6 -12 -14 -9 -8 3 -17 0 -21 -5 -10 -18 -26 -1 -20 20 4 12 1
21 -9 25 -24 9 -19 21 14 32 21 8 28 16 24 26 -3 9 -11 16 -16 16 -6 0 -5 -6
2 -15 10 -12 10 -15 0 -15 -6 0 -20 10 -30 22 -29 37 -48 11 -45 -62 2 -34 -3
-73 -9 -88 -8 -15 -11 -47 -9 -75 4 -41 8 -47 24 -42 19 6 24 -10 19 -58 -1
-17 0 -17 19 2 12 12 29 20 39 20 16 -1 16 -2 0 -6 -26 -7 -22 -33 5 -33 18 0
19 -2 7 -10 -12 -8 -11 -10 8 -10 12 0 24 0 27 0 10 1 38 -31 32 -36 -3 -3
-14 -1 -24 4 -34 17 -43 2 -15 -26 15 -15 28 -40 30 -56 3 -28 25 -60 35 -50
2 3 7 -4 10 -16 6 -24 -6 -26 -27 -4 -14 13 -16 13 -16 1 0 -23 11 -47 22 -47
5 0 7 4 4 8 -3 5 1 9 9 9 8 0 12 -4 9 -9 -3 -4 9 -8 25 -8 23 0 31 5 31 18 0
13 7 18 20 17 30 -2 42 -18 32 -44 -8 -22 -9 -22 -25 -6 -15 15 -18 15 -33 1
-14 -15 -13 -16 13 -17 l28 0 -25 -11 c-21 -9 -22 -12 -7 -15 12 -3 16 -12 13
-30 -6 -32 -16 -42 -17 -17 -1 10 -1 23 0 27 1 5 -4 7 -11 5 -7 -3 -18 2 -25
11 -10 13 -11 14 -10 1 2 -8 6 -21 10 -27 6 -9 3 -11 -7 -7 -9 3 -16 1 -16 -5
0 -18 -49 -12 -59 7 -6 10 -8 30 -5 43 2 13 2 19 -2 12 -3 -7 -11 -10 -18 -7
-15 6 -41 -40 -32 -55 4 -6 3 -11 -3 -11 -10 0 -27 38 -23 52 1 4 -14 14 -32
23 -34 16 -63 66 -50 86 3 5 2 9 -3 9 -4 0 -17 13 -27 27 -19 26 -19 26 -1 19
18 -7 18 -6 -1 15 -13 16 -15 23 -7 26 22 8 14 42 -12 59 -14 9 -25 22 -25 30
0 17 -68 30 -82 16 -8 -8 -17 -8 -30 -1 -22 12 -39 4 -32 -16 4 -8 10 -12 15
-9 5 3 9 0 9 -5 0 -19 -32 -12 -37 8 -3 13 -11 17 -24 14 -11 -3 -19 0 -19 7
0 8 9 11 25 8 14 -3 25 -2 25 2 0 9 -34 40 -44 40 -4 0 -19 9 -33 20 -14 11
-29 17 -33 15 -5 -3 -11 -1 -15 4 -3 6 -12 8 -19 5 -8 -3 -17 0 -22 7 -5 9 -2
10 9 6 10 -3 17 -2 17 3 0 6 -4 10 -10 10 -5 0 -10 10 -10 23 0 27 39 56 50
37 5 -9 9 -9 14 -1 4 6 5 15 1 20 -3 5 0 13 6 17 8 4 9 3 5 -4 -4 -7 -1 -12 9
-12 9 0 14 4 11 8 -3 5 2 18 10 30 12 18 25 22 65 22 32 0 49 4 49 13 0 7 3 8
8 2 11 -16 42 -14 42 2 0 10 -6 12 -20 8 -11 -4 -20 -2 -20 4 0 7 -8 7 -22 2
-13 -4 -47 -7 -76 -6 -51 1 -67 -7 -36 -19 24 -9 6 -26 -29 -26 -34 0 -60 -12
-57 -26 1 -5 -3 -10 -8 -12 -12 -4 -11 16 1 36 5 7 3 12 -7 12 -25 0 -23 -167
1 -187 17 -14 17 -14 1 -9 -13 4 -18 0 -18 -14 0 -11 5 -20 10 -20 6 0 10 4
10 9 0 11 48 24 60 16 6 -3 6 -15 0 -30 -6 -15 -6 -27 0 -30 16 -10 12 -55 -5
-55 -18 0 -20 27 -3 32 7 3 6 7 -5 11 -9 3 -17 2 -17 -3 0 -6 -7 -10 -16 -10
-8 0 -12 -4 -9 -10 3 -5 1 -19 -5 -30 -6 -11 -7 -20 -2 -20 5 0 14 -11 22 -24
7 -13 22 -27 34 -30 18 -5 19 -8 6 -16 -10 -6 -16 -6 -18 0 -5 13 -22 13 -22
0 0 -6 -9 -30 -20 -52 -24 -50 -25 -77 -5 -104 17 -23 19 -50 3 -60 -7 -5 -8
-3 -3 6 5 8 4 11 -2 7 -6 -4 -11 -36 -12 -72 -2 -60 0 -65 20 -65 15 0 19 5
15 15 -3 9 0 15 8 15 8 0 16 -7 20 -15 3 -8 10 -15 16 -15 7 0 8 6 1 17 -6 12
-5 22 4 30 10 9 14 8 18 -8 3 -12 14 -19 29 -19 14 0 37 -13 53 -30 16 -17 35
-30 42 -30 7 0 21 -16 30 -35 16 -34 16 -36 -3 -50 -18 -13 -18 -14 4 -8 17 4
22 1 23 -13 0 -17 1 -17 11 2 9 20 90 64 116 64 6 0 17 9 25 21 27 38 71 -6
80 -79 2 -17 0 -32 -5 -32 -5 0 -6 -4 -3 -10 3 -5 -1 -10 -10 -10 -9 0 -14 4
-11 9 10 16 -38 -2 -51 -18 -17 -22 -16 -36 2 -21 16 14 21 0 5 -16 -9 -9 2
-12 53 -14 9 -1 15 -5 12 -11 -4 -5 -1 -9 5 -9 6 0 15 11 22 25 6 13 18 26 27
28 9 3 4 5 -11 6 -29 1 -41 31 -13 31 8 0 15 -4 15 -10 0 -5 5 -10 10 -10 19
0 10 19 -12 26 -19 6 -19 7 -5 16 20 11 21 22 4 40 -10 10 -8 18 12 38 22 23
23 24 12 3 -9 -17 -9 -23 0 -23 6 0 8 -7 5 -16 -4 -10 -2 -13 6 -8 7 5 9 -1 6
-20 -3 -14 -1 -26 3 -26 5 0 9 5 9 10 0 6 5 10 11 10 6 0 9 -6 6 -14 -7 -18
35 -13 65 9 l23 17 -22 -5 c-17 -4 -23 -1 -23 12 0 22 26 58 36 49 4 -4 1 -14
-6 -23 -7 -8 -8 -15 -2 -15 24 0 23 54 -2 73 -7 5 -2 7 11 4 26 -6 29 0 9 22
-8 9 -21 34 -30 55 l-16 39 20 -18 c11 -10 19 -24 16 -31 -5 -14 22 -23 46
-15 13 4 15 10 8 21 -5 8 -10 22 -9 30 0 8 6 3 15 -12 8 -15 12 -39 10 -52 -5
-29 10 -38 39 -23 19 10 19 10 0 18 -16 7 -14 8 10 6 25 -2 31 -7 33 -29 2
-16 7 -28 12 -28 5 0 8 -6 6 -12 -1 -7 -1 -10 1 -5 3 4 14 7 25 7 14 0 18 -5
14 -16 -3 -9 -6 -20 -6 -25 0 -6 -5 -7 -11 -4 -6 4 -9 0 -7 -11 2 -15 -3 -18
-33 -16 -48 4 -63 -14 -43 -53 16 -31 13 -37 -18 -42 -17 -3 -19 -1 -9 11 10
11 6 17 -19 29 -25 13 -30 13 -30 1 0 -8 -4 -14 -9 -14 -10 0 -9 -19 2 -37 10
-16 -5 -17 -20 -2 -7 7 -19 9 -27 6 -12 -5 -14 -12 -7 -31 6 -13 8 -27 5 -30
-2 -3 2 -2 8 4 18 15 28 12 28 -9 0 -11 4 -22 9 -26 13 -7 60 15 91 44 21 20
32 22 75 18 48 -6 49 -5 20 7 -16 7 -33 12 -37 9 -4 -2 -3 10 2 26 4 16 6 32
3 35 -10 9 70 39 100 37 15 -1 27 3 27 9 0 5 13 10 29 10 25 0 28 3 24 22 -3
13 -13 31 -21 41 -14 16 -13 16 17 1 18 -9 41 -30 52 -47 l19 -32 -27 -22
c-19 -17 -22 -23 -10 -23 9 0 19 5 23 11 4 8 9 7 15 -2 6 -10 2 -16 -14 -21
-19 -6 -18 -7 5 -4 30 3 64 -23 40 -31 -6 -3 -12 -13 -12 -24 0 -10 -4 -19
-10 -19 -5 0 -10 7 -10 15 0 8 -3 14 -8 14 -29 -5 -43 2 -37 20 3 12 0 21 -11
25 -19 7 -34 0 -34 -18 0 -7 -18 -23 -41 -35 -37 -21 -39 -24 -25 -40 9 -10
16 -25 16 -34 0 -12 9 -17 29 -17 16 0 34 -7 41 -15 16 -19 5 -34 -12 -17 -18
18 -28 15 -28 -7 0 -24 -16 -36 -26 -20 -9 15 -34 -44 -34 -80 0 -15 -5 -32
-12 -39 -9 -9 -9 -12 2 -12 9 0 8 -5 -6 -15 -19 -15 -19 -15 1 -8 11 4 25 13
31 21 9 12 12 13 19 2 5 -8 4 -15 -2 -17 -6 -2 -9 -13 -6 -23 3 -11 9 -17 14
-14 5 3 7 10 4 15 -4 5 1 9 9 9 9 0 16 -4 16 -10 0 -5 -4 -10 -10 -10 -5 0
-10 -4 -10 -10 0 -5 8 -10 18 -10 21 1 54 25 45 33 -3 4 5 7 18 6 13 0 18 -3
12 -6 -18 -7 -16 -26 4 -61 15 -26 15 -33 3 -58 -7 -16 -13 -32 -12 -36 1 -5
-7 -8 -18 -8 -11 0 -20 7 -20 16 0 8 5 12 10 9 18 -11 10 15 -10 32 -11 10
-20 24 -20 33 0 12 2 12 9 2 6 -10 10 -7 13 12 4 20 2 24 -7 16 -7 -6 -20 -8
-29 -4 -13 5 -15 2 -9 -12 6 -17 5 -18 -11 -4 -12 9 -14 16 -6 18 10 4 -4 15
-47 38 -8 3 -26 -7 -42 -25 -28 -30 -28 -31 -8 -32 12 -1 25 -1 29 -1 3 1 12
-5 18 -13 11 -13 14 -13 27 2 13 17 14 16 10 -5 -3 -12 2 -41 11 -63 15 -39
18 -41 51 -36 27 3 42 -1 58 -16 20 -18 23 -18 29 -3 3 9 0 24 -7 33 -8 9 -9
14 -3 10 7 -4 14 3 18 18 5 20 13 25 37 25 20 0 29 -4 26 -12 -2 -7 -14 -12
-26 -11 -28 4 -27 -13 2 -21 34 -9 37 -8 37 17 0 12 14 39 31 60 30 36 27 45
-15 38 -5 -1 -6 5 -2 14 4 12 1 15 -13 10 -18 -5 -39 21 -26 33 3 3 5 0 5 -7
0 -7 4 -10 9 -7 5 3 7 15 4 26 -6 24 0 25 22 3 13 -13 19 -13 25 -4 5 9 10 10
14 2 4 -6 2 -11 -3 -11 -15 0 -14 -18 1 -34 11 -11 15 -11 25 3 8 10 15 12 20
6 10 -12 73 -15 73 -4 0 5 -6 8 -13 7 -6 -2 -11 3 -9 10 2 10 -2 10 -18 0 -17
-11 -22 -10 -30 2 -5 8 -10 11 -10 6 0 -6 -5 -5 -11 1 -9 9 -6 19 10 39 11 15
21 34 20 43 0 11 -2 12 -6 3 -4 -10 -10 -10 -29 2 -19 13 -24 14 -31 2 -4 -7
-19 -17 -32 -21 -17 -5 -21 -4 -16 5 6 9 3 9 -15 0 -20 -11 -21 -10 -10 11 11
19 10 21 -5 15 -15 -5 -16 -4 -6 8 7 8 19 12 27 9 8 -3 14 0 14 6 0 7 8 8 24
1 15 -5 27 -5 34 2 15 15 59 2 64 -19 3 -13 23 -22 67 -32 34 -7 65 -11 68 -7
3 3 -4 6 -16 6 -17 0 -21 4 -17 15 3 8 1 15 -4 15 -6 0 -10 6 -10 13 0 6 -4
18 -9 25 -7 12 -12 12 -30 1 -11 -8 -21 -21 -21 -29 0 -13 -2 -13 -9 -1 -12
19 -4 41 26 70 18 17 28 20 36 12 16 -16 35 -14 68 10 18 13 29 29 29 45 l0
24 -25 -22 c-13 -11 -22 -25 -19 -29 2 -4 -5 -7 -16 -6 -15 1 -19 6 -14 22 10
32 10 37 -2 42 -6 2 -15 -6 -18 -19 l-7 -23 -10 25 c-7 17 -7 32 1 49 8 18 8
26 -1 31 -17 11 5 21 28 13 16 -6 16 -5 5 10 -10 12 -26 15 -58 13 -24 -2 -44
1 -44 6 0 6 -7 8 -15 4 -8 -3 -15 -1 -15 4 0 6 5 10 10 10 6 0 10 6 10 14 0 9
7 12 21 9 16 -4 17 -8 7 -14 -8 -6 0 -9 25 -9 24 0 37 5 37 13 0 9 12 14 33
14 l32 1 -27 -10 c-17 -6 -25 -14 -22 -23 4 -10 12 -11 31 -4 37 14 52 9 18
-6 -16 -8 -24 -14 -18 -15 18 0 53 -32 47 -42 -3 -4 1 -26 7 -48 11 -36 17
-41 49 -46 l36 -6 -3 -56 c-4 -68 20 -132 49 -132 10 0 18 -4 18 -10 0 -5 6
-10 14 -10 8 0 16 -7 20 -15 6 -17 -9 -21 -19 -5 -3 6 -11 10 -17 10 -7 0 -6
-6 2 -15 7 -8 23 -15 36 -15 28 0 31 -15 6 -29 -9 -6 -12 -11 -7 -11 6 0 15 4
21 10 6 6 9 1 9 -15 -1 -14 -4 -28 -8 -31 -7 -7 40 -94 57 -106 6 -4 14 -4 20
-1 5 3 6 1 2 -5 -4 -7 -2 -12 4 -12 6 0 9 -4 5 -9 -3 -5 -1 -12 5 -16 6 -4 10
5 10 22 1 25 2 26 13 11 9 -12 17 -14 30 -6 10 5 15 13 12 19 -4 5 -2 9 3 9 6
0 12 -6 15 -14 4 -9 -6 -20 -26 -30 l-32 -15 55 1 c30 0 63 6 73 13 18 13 18
13 0 25 -15 9 -11 10 20 5 27 -4 37 -3 32 4 -3 6 -12 11 -19 11 -17 0 -38 25
-29 33 3 4 12 -1 19 -11 12 -16 13 -15 14 5 0 12 -5 25 -10 28 -6 4 -7 11 -4
17 4 7 2 8 -5 4 -6 -4 -9 -12 -6 -17 4 -5 1 -9 -4 -9 -19 0 -12 45 9 63 11 9
30 17 43 16 12 0 16 -3 9 -6 -17 -7 -15 -33 5 -55 9 -10 11 -18 5 -18 -6 0
-14 5 -17 10 -3 6 -11 10 -17 10 -7 0 -6 -5 2 -15 7 -8 9 -22 6 -31 -4 -9 -1
-23 5 -30 13 -16 43 -19 34 -4 -3 6 -1 10 6 10 7 0 9 10 7 25 -3 14 -1 28 3
31 5 3 9 1 9 -5 0 -6 7 -8 16 -4 8 3 13 11 11 17 -4 9 23 12 64 7 3 -1 13 -18
23 -38 41 -93 63 -111 95 -80 11 9 13 9 7 0 -6 -10 14 -13 85 -13 92 0 92 0
74 20 -14 16 -20 17 -27 8 -5 -9 -8 -6 -8 10 0 15 6 22 20 22 12 0 20 7 20 16
0 20 22 42 37 37 6 -2 14 1 18 6 3 6 -2 11 -12 12 -10 0 -13 3 -6 6 7 2 13 13
13 24 0 12 7 19 19 19 17 0 36 25 33 42 -1 4 7 10 18 13 11 4 20 11 20 16 0 5
5 9 10 9 18 0 10 -22 -10 -27 -11 -3 -20 -12 -20 -19 0 -11 10 -13 36 -11 47
6 81 -20 66 -50 -8 -14 -8 -23 0 -31 9 -9 9 -12 0 -12 -18 0 -14 -20 6 -27 35
-12 43 -24 30 -41 -10 -13 -10 -14 0 -8 6 4 12 3 12 -3 0 -5 8 -12 18 -14 9
-3 4 -4 -13 -2 -16 2 -30 4 -30 5 0 1 -10 3 -23 6 -13 2 -21 1 -19 -3 10 -16
-77 -5 -88 11 -7 9 -15 13 -18 9 -4 -3 -7 9 -6 28 0 34 0 34 16 11 8 -12 25
-22 37 -22 28 1 61 26 46 35 -6 4 -19 0 -29 -9 -23 -21 -31 -20 -31 4 0 16 -7
20 -36 20 -19 0 -33 -4 -29 -9 3 -5 -6 -21 -20 -35 -22 -22 -24 -28 -13 -46
15 -23 30 -27 22 -5 -8 21 3 48 17 39 8 -5 8 -9 -1 -14 -9 -6 -6 -10 9 -15 11
-3 21 -10 21 -15 0 -11 447 -11 478 1 17 7 29 6 36 -1 5 -5 35 -10 66 -9 30 0
49 3 42 6 -6 2 -10 8 -7 13 3 5 -2 16 -11 24 -8 9 -17 30 -18 47 -1 19 -10 35
-22 42 -10 6 -22 15 -26 21 -5 8 -8 7 -8 -1 0 -7 -5 -13 -12 -13 -6 0 -19 -7
-29 -15 -15 -14 -18 -14 -32 0 -23 23 -34 19 -52 -19 -9 -18 -28 -44 -42 -57
-15 -13 -22 -17 -18 -9 5 10 1 8 -13 -4 -20 -17 -22 -17 -28 -2 -3 9 -14 16
-23 16 -12 0 -13 2 -3 9 8 4 13 12 12 17 -1 5 4 10 11 13 7 2 9 -1 4 -9 -6
-10 -4 -12 8 -7 9 3 18 1 20 -6 3 -7 4 -2 4 10 -1 12 -8 22 -17 22 -8 0 -31 4
-50 8 -27 7 -31 10 -17 16 9 3 24 4 33 0 10 -4 22 1 29 10 11 15 14 15 30 -3
10 -11 27 -20 38 -20 19 0 19 1 -4 21 l-24 22 28 -5 c20 -4 25 -2 18 6 -6 7
-6 17 -1 26 8 12 16 8 42 -21 l33 -36 23 23 c12 13 30 24 40 24 10 0 13 3 7 8
-18 13 -35 51 -26 57 5 3 12 -1 14 -7 4 -10 6 -10 6 0 1 7 -6 15 -14 18 -8 4
-12 10 -9 16 8 13 64 -41 64 -62 0 -9 -6 -22 -12 -29 -11 -11 -9 -11 11 -1 13
6 21 8 18 3 -9 -15 19 -44 37 -37 9 3 16 10 16 15 0 10 41 49 52 49 17 0 7
-17 -17 -28 -14 -6 -25 -18 -25 -26 0 -8 -5 -16 -12 -18 -6 -2 -8 -10 -4 -17
6 -9 12 -8 23 6 8 10 12 12 8 6 -10 -21 46 -62 83 -63 24 0 31 -4 26 -12 -6
-10 -5 -10 7 -1 18 14 35 5 40 -22 4 -18 13 -20 104 -23 57 -1 116 3 137 9 26
8 41 9 50 1 7 -5 59 -11 114 -11 l101 -1 -5 26 c-3 19 -1 25 7 20 11 -7 13 0
15 49 0 12 -7 21 -19 23 -56 8 -64 13 -70 43 -4 19 -12 29 -20 25 -8 -3 -12 2
-11 12 2 9 9 18 16 20 7 3 10 0 6 -7 -4 -6 -2 -11 3 -11 6 0 11 8 12 18 0 9 1
34 3 55 2 21 0 40 -4 42 -4 3 -8 -1 -7 -8 2 -51 -2 -57 -29 -45 -15 7 -21 14
-15 16 6 2 3 17 -9 40 l-20 37 38 10 c23 7 31 13 22 16 -13 5 -13 8 0 24 11
13 12 19 3 22 -7 2 -9 11 -6 19 6 16 -18 19 -33 4 -5 -5 -15 -6 -24 0 -12 7
-11 10 5 16 11 4 22 11 25 16 8 11 50 -20 50 -37 0 -7 9 -16 19 -20 15 -5 19
-16 21 -63 2 -83 5 -99 19 -116 8 -9 10 -16 5 -16 -4 0 -3 -5 4 -12 7 -7 12
-24 12 -38 0 -30 21 -53 64 -70 19 -7 31 -7 36 -1 3 6 16 7 29 4 23 -6 23 -6
-5 -19 -16 -7 -23 -13 -16 -13 7 -1 10 -5 7 -11 -6 -9 21 -70 31 -70 3 0 2 6
-2 13 -5 8 -2 7 9 -2 25 -20 34 -5 12 19 -10 11 -13 20 -7 20 6 0 18 -10 26
-22 9 -12 27 -24 42 -25 l26 -4 -29 41 c-24 35 -32 40 -56 35 -17 -3 -26 -1
-22 5 3 6 13 10 21 10 8 0 14 8 14 18 0 14 -2 15 -9 3 -8 -12 -11 -8 -16 15
-4 16 -9 37 -12 47 -2 9 0 17 6 17 6 0 11 -6 11 -13 0 -7 10 -17 22 -22 13 -6
22 -16 21 -22 -1 -6 9 -10 22 -10 15 0 25 5 25 13 0 8 7 14 16 14 10 0 14 -6
11 -14 -3 -8 -1 -17 6 -19 9 -3 9 -7 0 -17 -10 -11 -9 -16 5 -26 12 -9 13 -13
4 -14 -22 0 -52 20 -52 35 0 8 -4 15 -10 15 -5 0 -10 -5 -10 -11 0 -20 21 -49
36 -49 8 0 13 -4 9 -9 -3 -5 5 -17 17 -25 33 -23 289 -23 312 0 9 8 16 20 16
25 0 15 -17 10 -24 -6 -7 -20 -26 -19 -26 1 0 8 5 12 10 9 6 -3 10 1 10 9 0
39 59 3 60 -36 0 -14 9 -18 39 -18 34 0 38 3 34 20 -3 11 0 20 6 20 6 0 11 -9
11 -20 0 -20 11 -20 1680 -20 l1680 0 0 3674 c0 2930 -3 3675 -12 3679 -10 4
-10 6 0 6 9 1 12 72 12 321 l0 320 -4000 0 -4000 0 0 -2746z m7595 2646 c3 -5
-1 -10 -9 -10 -9 0 -16 5 -16 10 0 6 4 10 9 10 6 0 13 -4 16 -10z m-3955 -32
c0 -5 -9 -4 -20 2 -11 6 -20 12 -20 14 0 2 9 2 20 -1 11 -3 20 -9 20 -15z
m2245 -198 c7 -12 -12 -12 -40 0 -18 8 -17 9 7 9 15 1 30 -3 33 -9z m1662 -86
c-3 -3 -12 -4 -19 -1 -8 3 -5 6 6 6 11 1 17 -2 13 -5z m-1090 -10 c-3 -3 -12
-4 -19 -1 -8 3 -5 6 6 6 11 1 17 -2 13 -5z m-2460 -48 c15 -14 -7 -21 -45 -13
-51 10 -46 32 6 24 19 -4 37 -8 39 -11z m3618 -19 c7 -7 4 -8 -8 -3 -10 3 -30
6 -43 6 -13 0 -24 5 -24 11 0 13 60 2 75 -14z m-4058 7 c-3 -3 -12 -4 -19 -1
-8 3 -5 6 6 6 11 1 17 -2 13 -5z m3678 -4 c3 -6 -1 -7 -9 -4 -18 7 -21 14 -7
14 6 0 13 -4 16 -10z m645 -51 c0 -5 -6 -9 -14 -9 -23 0 -46 11 -41 20 6 10
55 0 55 -11z m-1215 -19 c3 -5 2 -10 -4 -10 -5 0 -13 5 -16 10 -3 6 -2 10 4
10 5 0 13 -4 16 -10z m165 -26 c0 -2 -7 -4 -15 -4 -8 0 -15 4 -15 10 0 5 7 7
15 4 8 -4 15 -8 15 -10z m-6753 -20 c-3 -3 -12 -4 -19 -1 -8 3 -5 6 6 6 11 1
17 -2 13 -5z m6566 -51 c-7 -2 -19 -2 -25 0 -7 3 -2 5 12 5 14 0 19 -2 13 -5z
m-786 -9 c-3 -3 -12 -4 -19 -1 -8 3 -5 6 6 6 11 1 17 -2 13 -5z m963 -14 c16
-12 20 -20 11 -20 -22 0 -81 23 -81 32 0 15 45 7 70 -12z m-437 -7 c-7 -2 -19
-2 -25 0 -7 3 -2 5 12 5 14 0 19 -2 13 -5z m-153 -42 c18 -4 -32 -21 -60 -20
-34 0 -34 0 -12 13 20 10 42 13 72 7z m1607 -7 c-3 -3 -12 -4 -19 -1 -8 3 -5
6 6 6 11 1 17 -2 13 -5z m-14 -121 c-7 -2 -19 -2 -25 0 -7 3 -2 5 12 5 14 0
19 -2 13 -5z m-489 -29 c25 -10 19 -22 -9 -16 -14 2 -25 8 -25 13 0 10 12 11
34 3z m587 -21 c13 -15 12 -15 -8 -4 -24 12 -29 21 -14 21 5 0 15 -7 22 -17z
m-414 -439 c-3 -3 -12 -4 -19 -1 -8 3 -5 6 6 6 11 1 17 -2 13 -5z m-394 -601
c-7 -2 -19 -2 -25 0 -7 3 -2 5 12 5 14 0 19 -2 13 -5z m547 -183 c0 -5 -6 -10
-14 -10 -8 0 -18 5 -21 10 -3 6 3 10 14 10 12 0 21 -4 21 -10z m160 -90 c0 -5
-2 -10 -4 -10 -3 0 -8 5 -11 10 -3 6 -1 10 4 10 6 0 11 -4 11 -10z m13 -137
c-7 -2 -19 -2 -25 0 -7 3 -2 5 12 5 14 0 19 -2 13 -5z m-6365 -1540 l2 -1443
710 3 710 2 0 -196 0 -197 -877 0 c-483 0 -890 2 -905 5 -22 3 -28 10 -29 31
0 15 -3 21 -6 15 -6 -16 -33 -17 -33 -2 0 6 -7 8 -17 5 -24 -10 -35 15 -15 37
16 18 16 20 -1 32 -9 6 -17 15 -17 18 0 10 65 -18 77 -33 10 -13 12 -10 13 18
0 25 -4 32 -19 32 -20 0 -45 23 -35 33 3 3 17 2 30 -3 l24 -10 0 1550 0 1550
193 -2 192 -3 3 -1442z m4332 1422 c453 -64 765 -249 997 -595 135 -199 226
-458 259 -730 26 -219 16 -542 -22 -705 -85 -364 -209 -602 -428 -821 -202
-201 -410 -307 -706 -360 -172 -30 -530 -46 -943 -42 l-298 3 0 1095 c0 602 0
1340 1 1639 l0 544 513 -6 c394 -4 538 -9 627 -22z m-5317 -2500 c-12 -9 -19
-10 -22 -3 -4 12 20 29 32 21 4 -3 0 -11 -10 -18z m-226 -59 c-4 -9 -14 -16
-22 -16 -9 0 -14 3 -12 8 2 4 7 16 11 26 5 14 10 16 18 8 6 -6 8 -18 5 -26z
m283 13 c0 -14 -17 -10 -23 5 -4 10 -1 13 9 9 7 -3 14 -9 14 -14z m-354 -76
c-10 -10 -19 5 -10 18 6 11 8 11 12 0 2 -7 1 -15 -2 -18z m49 17 c3 -5 2 -10
-4 -10 -5 0 -13 5 -16 10 -3 6 -2 10 4 10 5 0 13 -4 16 -10z m-5 -80 c11 -7 6
-10 -20 -10 -26 0 -31 3 -20 10 8 5 17 10 20 10 3 0 12 -5 20 -10z m180 -31
c0 -6 -4 -7 -10 -4 -5 3 -10 11 -10 16 0 6 5 7 10 4 6 -3 10 -11 10 -16z
m-140 -25 c0 -14 -3 -14 -15 -4 -8 7 -15 14 -15 16 0 2 7 4 15 4 8 0 15 -7 15
-16z m-63 -16 c-3 -8 -6 -5 -6 6 -1 11 2 17 5 13 3 -3 4 -12 1 -19z m222 7
c22 -13 10 -20 -39 -22 -51 -1 -59 4 -38 25 12 12 56 11 77 -3z m-115 -49 c-3
-9 -10 -13 -15 -10 -5 3 -3 11 4 19 15 16 19 13 11 -9z m-214 4 c-20 -13 -33
-13 -25 0 3 6 14 10 23 10 15 0 15 -2 2 -10z m310 0 c0 -5 -3 -10 -7 -10 -5 0
-19 -3 -33 -6 l-25 -6 25 15 c31 18 40 20 40 7z m209 -46 c-5 -6 -6 -13 -3
-17 3 -3 -5 -8 -17 -12 -14 -5 -25 -3 -27 4 -2 6 -13 16 -25 23 -21 11 -21 11
-3 -16 19 -30 15 -46 -8 -27 -11 9 -18 7 -34 -14 -23 -29 -32 -30 -72 -10 -25
13 -30 22 -30 50 0 29 4 36 25 41 14 3 22 10 19 15 -9 15 29 10 50 -6 27 -21
69 -19 85 4 14 19 15 19 32 -2 11 -14 14 -26 8 -33z m-369 36 c0 -5 -5 -10
-11 -10 -5 0 -7 5 -4 10 3 6 8 10 11 10 2 0 4 -4 4 -10z m-90 -106 c0 -2 -4
-4 -10 -4 -5 0 -10 7 -10 16 0 11 -6 15 -20 11 -11 -3 -23 0 -27 5 -3 6 -1 8
4 5 6 -4 16 0 23 8 11 13 15 12 26 -11 8 -14 14 -28 14 -30z m143 40 c3 -4 -4
-15 -16 -25 -12 -10 -18 -18 -14 -19 5 0 1 -7 -8 -16 -11 -12 -13 -20 -5 -29
8 -9 8 -15 0 -20 -12 -7 -50 3 -48 13 1 4 -2 17 -6 30 -9 28 9 53 31 45 11 -4
14 -2 9 5 -5 8 -2 10 8 6 9 -3 16 -1 16 5 0 12 23 15 33 5z m377 -9 c0 -8 -4
-15 -9 -15 -13 0 -22 16 -14 24 11 11 23 6 23 -9z m-68 -24 c-10 -6 -4 -11 20
-16 29 -7 30 -9 9 -12 -12 -3 -34 -2 -48 2 -20 5 -23 8 -13 20 7 8 20 15 29
15 12 0 13 -2 3 -9z m-528 -46 c-4 -8 -14 -15 -23 -15 -14 1 -13 3 3 15 25 19
27 19 20 0z m363 9 c-3 -3 -12 -4 -19 -1 -8 3 -5 6 6 6 11 1 17 -2 13 -5z m9
-84 c6 0 19 -9 29 -20 18 -19 17 -20 -3 -20 -12 0 -22 -4 -22 -10 0 -5 6 -10
14 -10 8 0 17 -3 19 -7 3 -5 -15 -8 -39 -9 -24 0 -44 3 -44 7 0 5 7 6 16 2 12
-4 14 0 8 23 -3 16 -13 34 -20 40 -8 6 -14 15 -14 19 0 5 -8 18 -17 29 -10 11
0 6 22 -12 22 -18 45 -32 51 -32z m-280 22 c6 -4 11 -14 11 -22 0 -8 4 -23 8
-32 4 -11 3 -18 -5 -18 -6 0 -14 9 -17 21 -4 16 -12 20 -29 16 -18 -3 -24 0
-24 14 0 24 33 37 56 21z m116 -13 c27 -7 36 -14 32 -24 -4 -10 0 -15 12 -15
11 0 15 3 8 8 -6 4 -8 18 -4 32 l6 25 27 -29 c31 -34 31 -49 -3 -57 -32 -7
-72 10 -66 28 4 10 -4 12 -33 9 -21 -1 -44 -7 -51 -11 -9 -6 -11 -4 -5 5 4 7
2 16 -6 21 -12 7 -11 9 1 9 13 0 13 1 0 11 -16 11 6 8 82 -12z m-205 -21 c-3
-7 -5 -2 -5 12 0 14 2 19 5 13 2 -7 2 -19 0 -25z m873 22 c0 -5 -5 -10 -11
-10 -5 0 -7 5 -4 10 3 6 8 10 11 10 2 0 4 -4 4 -10z m-588 -92 c-7 -7 -12 -8
-12 -2 0 14 12 26 19 19 2 -3 -1 -11 -7 -17z m-182 2 c0 -5 -4 -10 -10 -10 -5
0 -10 5 -10 10 0 6 5 10 10 10 6 0 10 -4 10 -10z m342 -6 c4 -3 2 -19 -2 -35
-5 -17 -5 -29 1 -29 5 0 9 -5 9 -11 0 -6 -7 -9 -15 -5 -10 4 -15 -1 -15 -14 0
-11 -7 -20 -15 -20 -18 0 -18 1 0 36 8 16 15 41 15 57 0 25 9 34 22 21z m-83
-27 c6 -8 8 -17 4 -20 -3 -4 1 -7 10 -7 11 0 14 -5 10 -17 -4 -11 -8 -12 -11
-5 -2 7 -11 12 -21 12 -9 0 -22 5 -27 10 -7 7 -16 4 -29 -10 -10 -11 -23 -20
-29 -20 -6 0 -5 5 2 12 19 19 14 30 -9 23 -16 -5 -20 -3 -17 6 3 8 16 13 32
11 14 -2 34 2 44 7 23 14 28 13 41 -2z m541 -7 c0 -5 -2 -10 -4 -10 -3 0 -8 5
-11 10 -3 6 -1 10 4 10 6 0 11 -4 11 -10z m-855 -11 c-4 -5 -22 -9 -41 -9 -46
0 -37 14 10 17 20 1 34 -3 31 -8z m80 -4 c31 -12 65 -47 65 -66 0 -24 -20 -35
-21 -12 0 17 -1 17 -8 0 -4 -10 -10 -18 -14 -18 -23 3 -27 -2 -27 -29 0 -16 4
-30 9 -30 5 0 12 -7 15 -15 5 -13 1 -12 -18 2 -13 10 -21 22 -18 27 3 5 0 6
-7 2 -16 -10 -61 1 -61 15 0 6 8 8 18 5 23 -8 50 39 29 48 -7 3 -2 3 11 0 15
-4 22 -1 22 9 0 11 -7 13 -22 9 -15 -3 -19 -2 -14 7 4 6 1 23 -8 36 -15 23
-15 23 7 21 12 -2 31 -7 42 -11z m-168 -17 c-3 -8 -6 -5 -6 6 -1 11 2 17 5 13
3 -3 4 -12 1 -19z m383 -24 c0 -8 -4 -12 -10 -9 -5 3 -10 10 -10 16 0 5 5 9
10 9 6 0 10 -7 10 -16z m-102 -14 c-14 -22 -24 -19 -15 5 4 8 11 15 17 15 6 0
6 -7 -2 -20z m135 -47 c-9 -27 -25 -44 -48 -53 -15 -7 -16 -9 -4 -9 20 -1 33
-28 18 -37 -10 -6 -38 22 -39 39 0 5 -4 6 -8 3 -4 -2 -14 -1 -21 3 -9 6 -1 11
23 15 31 6 35 10 27 25 -9 15 -7 17 13 14 13 -3 27 0 30 6 11 17 16 13 9 -6z
m307 7 c0 -5 -4 -10 -10 -10 -5 0 -10 5 -10 10 0 6 5 10 10 10 6 0 10 -4 10
-10z m-442 -22 c27 -27 -2 -50 -50 -40 -17 3 -14 32 4 32 5 0 6 -4 3 -10 -8
-13 5 -13 25 0 10 6 11 10 3 10 -7 0 -13 5 -13 10 0 14 13 13 28 -2z m502 -4
c0 -2 -9 -4 -20 -4 -11 0 -20 4 -20 9 0 5 9 7 20 4 11 -3 20 -7 20 -9z m-30
-44 c0 -5 -8 -10 -17 -10 -15 0 -16 2 -3 10 19 12 20 12 20 0z m7024 1 c8 -12
-17 -61 -31 -61 -21 0 -24 19 -7 45 17 26 29 31 38 16z m-7655 -15 c8 -10 9
-16 1 -21 -13 -8 -30 3 -30 21 0 18 14 18 29 0z m124 3 c12 -7 26 -17 30 -23
5 -6 5 -1 2 12 -4 14 -2 22 6 22 15 0 89 -50 89 -60 0 -4 -25 -14 -55 -22 -55
-15 -55 -15 -55 7 0 23 -42 70 -53 58 -4 -3 -7 -1 -7 5 0 15 15 15 43 1z m-18
-29 c3 -5 2 -10 -4 -10 -5 0 -13 5 -16 10 -3 6 -2 10 4 10 5 0 13 -4 16 -10z
m285 -35 c0 -8 -7 -15 -15 -15 -16 0 -20 12 -8 23 11 12 23 8 23 -8z m506 -31
c-6 -15 38 -39 54 -29 5 3 14 -3 19 -14 8 -14 8 -21 -2 -24 -6 -3 -2 -6 11 -6
18 -1 22 -7 22 -35 0 -21 -6 -36 -15 -40 -18 -6 -20 -36 -3 -36 6 0 3 -9 -7
-20 -10 -11 -13 -20 -7 -20 7 0 12 5 12 11 0 6 9 9 20 6 11 -3 18 -1 14 4 -6
10 7 12 30 3 18 -7 22 -59 6 -69 -5 -3 -10 1 -10 9 0 9 -5 16 -11 16 -8 0 -7
6 2 17 13 15 12 15 -8 4 -13 -6 -23 -17 -23 -23 0 -7 -4 -7 -13 0 -7 6 -23 9
-35 5 -17 -4 -22 -1 -22 15 0 11 7 25 15 32 8 7 15 28 15 46 0 24 5 34 15 34
19 0 20 19 0 26 -27 11 -69 -11 -76 -39 -8 -31 -3 -34 24 -9 19 17 20 17 3
-15 -17 -35 -36 -44 -36 -18 0 18 -17 20 -22 3 -3 -7 -7 -6 -11 5 -4 11 -1 17
7 17 7 0 16 14 20 31 11 55 9 60 -20 53 -16 -4 -25 -3 -21 2 3 5 -10 20 -29
33 -19 13 -34 28 -34 33 0 6 15 -1 34 -16 35 -26 66 -34 66 -16 0 5 -8 14 -17
19 -17 10 -16 10 2 11 16 0 17 2 6 9 -8 5 -20 7 -28 4 -13 -5 -18 9 -7 20 12
12 66 -24 60 -39z m-552 3 c-10 -26 -22 -20 -16 9 3 15 8 22 14 16 5 -5 6 -16
2 -25z m-64 19 c0 -3 -4 -8 -10 -11 -5 -3 -10 -1 -10 4 0 6 5 11 10 11 6 0 10
-2 10 -4z m178 -8 c15 -15 16 -38 2 -38 -5 0 -10 9 -10 19 0 12 -8 21 -22 24
-21 4 -21 4 -2 6 11 0 25 -4 32 -11z m-151 -15 c-9 -9 -19 -14 -23 -11 -10 10
6 28 24 28 15 0 15 -1 -1 -17z m68 -2 c3 -5 1 -12 -5 -16 -5 -3 -10 1 -10 9 0
18 6 21 15 7z m55 -11 c0 -11 -5 -20 -12 -20 -6 0 -8 3 -5 7 4 3 2 12 -4 20
-9 10 -8 13 5 13 9 0 16 -8 16 -20z m-183 -15 c-4 -8 -13 -15 -22 -15 -13 0
-12 3 2 20 19 22 29 19 20 -5z m897 9 c9 -9 28 -17 43 -19 15 -1 38 -15 51
-31 23 -26 23 -29 7 -40 -14 -11 -22 -10 -42 4 -14 9 -35 17 -47 17 -11 1 -36
2 -55 3 -37 2 -37 10 -1 17 32 6 35 12 16 30 -16 16 -14 35 4 35 5 0 16 -7 24
-16z m-1174 -15 c0 -6 -4 -7 -10 -4 -5 3 -10 11 -10 16 0 6 5 7 10 4 6 -3 10
-11 10 -16z m786 5 c-3 -9 -6 -21 -6 -27 0 -8 -3 -8 -10 -1 -12 12 -3 44 12
44 6 0 7 -7 4 -16z m304 6 c0 -5 -5 -10 -11 -10 -5 0 -7 5 -4 10 3 6 8 10 11
10 2 0 4 -4 4 -10z m-540 -70 c7 0 9 8 5 20 -7 23 10 26 50 8 31 -14 32 -26 3
-37 -20 -7 -98 -4 -107 5 -2 2 -6 16 -7 30 l-3 26 24 -26 c13 -14 29 -26 35
-26z m158 39 c-2 -3 3 -13 11 -22 7 -10 10 -17 5 -18 -5 0 -19 -2 -32 -3 -19
-2 -20 -1 -8 13 7 9 11 22 8 30 -2 7 1 12 8 10 6 -3 10 -7 8 -10z m127 1 c3
-5 1 -10 -4 -10 -6 0 -11 5 -11 10 0 6 2 10 4 10 3 0 8 -4 11 -10z m-79 -15
c9 -8 11 -15 6 -15 -5 0 -15 7 -22 15 -7 8 -9 15 -6 15 4 0 14 -7 22 -15z
m-281 -4 c3 -5 1 -12 -5 -16 -5 -3 -10 1 -10 9 0 18 6 21 15 7z m350 -35 c18
-13 18 -14 -3 -20 -26 -9 -82 2 -82 14 0 5 6 7 14 4 8 -3 17 -1 21 5 9 15 27
14 50 -3z m325 -17 c0 -6 -4 -7 -10 -4 -5 3 -10 11 -10 16 0 6 5 7 10 4 6 -3
10 -11 10 -16z m-1155 1 c4 -6 -7 -10 -24 -10 -39 0 -48 14 -10 17 15 1 31 -2
34 -7z m635 -5 c10 -12 10 -15 -2 -15 -8 0 -15 7 -15 15 0 8 1 15 2 15 2 0 8
-7 15 -15z m50 11 c0 -2 -7 -7 -16 -10 -8 -3 -12 -2 -9 4 6 10 25 14 25 6z
m180 -41 c17 -9 30 -22 30 -30 0 -7 5 -17 12 -21 8 -5 9 -2 4 11 -5 15 -4 16
8 6 11 -9 14 -33 13 -97 -1 -46 -5 -84 -9 -84 -4 0 -8 4 -8 9 0 5 -9 11 -21
14 -12 3 -18 10 -14 16 4 7 -1 8 -12 4 -14 -4 -15 -3 -7 6 14 15 -14 80 -35
81 -17 0 -5 15 12 15 17 0 21 33 5 48 -8 9 -21 11 -33 6 -35 -13 -41 -9 -15
11 30 24 33 24 70 5z m-175 -9 c66 -9 80 -31 45 -66 -21 -21 -44 -18 -37 3 2
7 -8 17 -22 24 l-26 11 25 1 c20 1 22 3 10 11 -27 17 -45 11 -46 -15 -2 -18 3
-25 17 -25 22 0 23 -4 8 -32 -9 -17 -9 -20 4 -15 14 5 47 -20 47 -36 0 -3 -22
-17 -50 -30 -49 -23 -65 -22 -35 3 17 14 11 32 -9 24 -17 -7 -31 27 -15 37 6
4 8 12 4 19 -6 9 -2 9 16 -1 22 -11 23 -11 10 4 -7 10 -10 17 -6 17 4 0 2 7
-5 15 -7 9 -10 25 -6 41 6 21 11 25 29 19 12 -3 31 -8 42 -9z m366 -9 c-13
-13 -26 -3 -16 12 3 6 11 8 17 5 6 -4 6 -10 -1 -17z m-881 8 c0 -2 -9 -9 -20
-15 -16 -9 -18 -8 -14 5 5 13 34 22 34 10z m-56 -21 c11 -28 6 -39 -9 -20 -8
11 -15 23 -15 28 0 14 18 9 24 -8z m722 -6 c5 -7 2 -9 -9 -5 -9 3 -18 1 -20
-6 -2 -7 -8 -9 -12 -5 -10 9 3 28 20 28 8 0 17 -5 21 -12z m6844 -8 c0 -5 -4
-10 -10 -10 -5 0 -10 5 -10 10 0 6 5 10 10 10 6 0 10 -4 10 -10z m-6548 -44
c3 -14 0 -27 -7 -29 -7 -3 -11 8 -12 29 -1 38 12 38 19 0z m-157 -25 c-3 -6
-11 -11 -17 -11 -6 0 -6 6 2 15 14 17 26 13 15 -4z m119 -13 c-3 -4 0 -8 6 -8
6 0 22 -12 35 -27 25 -29 33 -49 15 -38 -5 3 -10 -1 -10 -9 0 -10 6 -13 18 -9
16 5 16 5 0 -12 -21 -23 -38 -11 -38 26 0 16 -4 29 -10 29 -5 0 -10 -6 -10
-12 0 -10 -2 -10 -9 0 -7 11 -9 11 -14 -2 -9 -24 -26 -19 -38 10 -15 40 -3 63
31 62 16 -1 27 -5 24 -10z m-674 -19 c0 -11 -41 -29 -52 -22 -12 6 13 29 34
30 10 1 18 -3 18 -8z m789 -5 c2 -2 2 -7 -2 -10 -3 -3 -16 2 -29 11 l-23 17
25 -7 c14 -4 27 -9 29 -11z m-459 -39 c17 -9 30 -17 30 -19 0 -1 -21 -3 -47
-3 -32 0 -41 3 -28 8 18 7 17 8 -5 8 -20 1 -22 3 -10 11 20 13 26 13 60 -5z
m665 -5 c3 -5 2 -10 -4 -10 -5 0 -13 5 -16 10 -3 6 -2 10 4 10 5 0 13 -4 16
-10z m-188 -32 c-6 -4 -17 -2 -24 4 -22 18 -15 27 11 15 16 -8 20 -14 13 -19z
m-371 -2 c-3 -13 -2 -26 2 -28 10 -4 24 -68 15 -68 -3 0 -12 8 -20 18 -14 16
-14 16 -9 0 3 -10 0 -18 -7 -19 -9 0 -9 -2 1 -6 6 -2 10 -9 6 -14 -9 -16 7
-49 24 -49 10 0 25 12 33 26 l16 26 21 -23 c12 -12 25 -19 29 -15 4 4 1 12 -7
17 -12 8 -11 9 5 7 14 -3 19 -10 17 -23 -9 -51 -6 -97 7 -104 10 -6 5 -11 -18
-16 -17 -3 -31 -11 -31 -16 0 -6 5 -7 10 -4 6 3 10 -1 10 -9 0 -19 1 -19 -39
-5 -25 9 -31 16 -28 30 3 11 1 17 -4 13 -5 -3 -9 2 -9 10 0 15 -60 54 -60 39
0 -5 -4 -2 -9 6 -8 12 -12 12 -25 2 -14 -12 -16 -10 -16 10 0 14 -16 40 -39
64 -26 27 -36 44 -29 52 6 7 5 14 -2 18 -5 3 -10 15 -10 25 0 10 -4 20 -10 22
-5 2 24 3 65 4 41 0 75 -4 75 -9 0 -4 7 -2 15 7 8 8 15 19 15 25 0 6 3 11 6
11 3 0 3 -11 0 -24z m56 -28 c-7 -7 -12 -8 -12 -2 0 14 12 26 19 19 2 -3 -1
-11 -7 -17z m233 -8 c-3 -5 -11 -10 -16 -10 -6 0 -7 5 -4 10 3 6 11 10 16 10
6 0 7 -4 4 -10z m-825 -12 c0 -10 2 -10 9 0 6 11 10 10 15 -4 4 -10 4 -15 0
-11 -4 4 -14 1 -22 -6 -13 -9 -14 -9 -8 1 4 6 2 12 -3 12 -6 0 -11 5 -11 10 0
6 5 10 10 10 6 0 10 -6 10 -12z m960 2 c0 -5 -5 -10 -11 -10 -5 0 -7 5 -4 10
3 6 8 10 11 10 2 0 4 -4 4 -10z m83 3 c-7 -2 -19 -2 -25 0 -7 3 -2 5 12 5 14
0 19 -2 13 -5z m43 -26 c4 -4 2 -7 -4 -7 -6 0 -12 -8 -14 -17 -3 -13 -6 -10
-9 8 -6 26 9 34 27 16z m-406 -27 c0 -28 24 -35 52 -16 30 21 45 20 26 -1 -9
-10 -13 -24 -11 -31 6 -17 -45 -5 -69 16 -19 16 -24 52 -8 52 6 0 10 -9 10
-20z m60 10 c0 -5 -4 -10 -10 -10 -5 0 -10 5 -10 10 0 6 5 10 10 10 6 0 10 -4
10 -10z m-100 -16 c0 -2 -7 -4 -15 -4 -8 0 -15 4 -15 10 0 5 7 7 15 4 8 -4 15
-8 15 -10z m-270 -34 c0 -5 -7 -7 -15 -4 -8 4 -15 8 -15 10 0 2 7 4 15 4 8 0
15 -4 15 -10z m775 -40 c18 -20 11 -25 -19 -14 -17 6 -23 34 -8 34 5 0 17 -9
27 -20z m-1100 -16 c22 -22 28 -24 42 -12 10 7 14 8 10 1 -4 -6 -1 -14 5 -16
7 -3 1 -6 -14 -6 -15 -1 -30 4 -33 9 -4 6 -12 7 -18 4 -7 -4 -9 -3 -4 1 4 5 0
17 -10 27 -25 28 -7 22 22 -8z m345 18 c0 -13 -12 -22 -22 -16 -10 6 -1 24 13
24 5 0 9 -4 9 -8z m-43 -48 c-4 -15 -5 -14 -6 4 -1 15 -5 21 -13 16 -7 -5 -8
-3 -3 5 10 18 28 -2 22 -25z m462 27 c9 -6 11 -16 7 -27 -4 -11 -10 -14 -14
-8 -4 6 -15 13 -25 17 -10 4 -15 11 -12 17 8 12 25 13 44 1z m758 -33 c-3 -8
-6 -5 -6 6 -1 11 2 17 5 13 3 -3 4 -12 1 -19z m483 -27 c0 -24 -23 4 -25 30
-2 21 -1 21 12 4 7 -11 13 -26 13 -34z m-1760 7 c0 -6 -6 -5 -15 2 -8 7 -15
14 -15 16 0 2 7 1 15 -2 8 -4 15 -11 15 -16z m1795 12 c3 -5 -1 -10 -9 -10 -9
0 -16 5 -16 10 0 6 4 10 9 10 6 0 13 -4 16 -10z m-1295 -26 c8 -19 6 -29 -5
-40 -13 -14 -15 -13 -16 3 0 10 -2 28 -3 41 -4 30 12 28 24 -4z m-270 12 c0
-3 -4 -8 -10 -11 -5 -3 -10 -1 -10 4 0 6 5 11 10 11 6 0 10 -2 10 -4z m420 -6
c0 -5 -2 -10 -4 -10 -3 0 -8 5 -11 10 -3 6 -1 10 4 10 6 0 11 -4 11 -10z
m-186 -15 c-4 -8 -10 -15 -15 -15 -4 0 -6 7 -3 15 4 8 10 15 15 15 4 0 6 -7 3
-15z m798 -30 c-3 -5 -7 -5 -9 2 -2 6 -13 9 -24 6 -14 -4 -18 -2 -13 10 3 9
13 17 22 19 18 4 33 -20 24 -37z m2438 31 c0 -8 -4 -18 -10 -21 -5 -3 -10 3
-10 14 0 12 5 21 10 21 6 0 10 -6 10 -14z m-3333 -43 c-3 -10 -5 -4 -5 12 0
17 2 24 5 18 2 -7 2 -21 0 -30z m1423 17 c-6 -11 -20 -20 -31 -20 -11 0 -32
-8 -46 -17 l-27 -18 29 -5 c39 -7 40 -21 2 -48 l-32 -22 -9 31 c-9 29 -7 35
22 60 18 16 41 29 52 29 11 0 20 7 20 15 0 8 7 15 15 15 13 0 14 -4 5 -20z
m-1505 -27 c7 -7 22 -13 32 -14 10 0 27 -5 38 -10 18 -9 18 -9 -4 -5 -27 5
-71 -9 -71 -23 0 -6 6 -8 14 -5 8 3 17 1 21 -5 4 -7 -4 -11 -20 -11 -15 0 -33
-7 -41 -15 -12 -12 -19 -12 -34 -2 -29 17 -24 30 8 23 22 -5 24 -4 10 4 -10 6
-18 22 -18 35 0 28 -15 33 -24 9 -3 -8 -11 -12 -17 -9 -6 4 -8 13 -5 20 2 7 0
18 -5 24 -6 8 -5 8 3 1 17 -14 44 -12 58 5 12 15 14 14 55 -22z m1412 31 c-3
-3 -12 -4 -19 -1 -8 3 -5 6 6 6 11 1 17 -2 13 -5z m-1277 -46 c0 -10 -4 -18
-10 -18 -5 0 -10 15 -10 33 0 24 3 28 10 17 5 -8 10 -23 10 -32z m40 -12 c0
-26 -6 -18 -14 19 -5 22 -4 26 4 15 5 -8 10 -24 10 -34z m835 25 c3 -5 1 -12
-5 -16 -5 -3 -10 1 -10 9 0 18 6 21 15 7z m523 -16 c-3 -3 -9 2 -12 12 -6 14
-5 15 5 6 7 -7 10 -15 7 -18z m77 -13 c-8 -9 -35 20 -28 31 4 6 11 3 19 -8 8
-10 12 -21 9 -23z m1802 16 c-3 -8 -6 -5 -6 6 -1 11 2 17 5 13 3 -3 4 -12 1
-19z m-2475 -6 c-7 -2 -12 -10 -12 -18 0 -8 -4 -14 -10 -14 -6 0 -5 10 2 25 6
13 16 21 21 18 8 -5 7 -8 -1 -11z m-1342 -12 c0 -5 -4 -10 -10 -10 -5 0 -10 5
-10 10 0 6 5 10 10 10 6 0 10 -4 10 -10z m1920 -2 c0 -4 -4 -8 -9 -8 -6 0 -12
4 -15 8 -3 5 1 9 9 9 8 0 15 -4 15 -9z m-1610 -18 c0 -5 -8 -10 -17 -10 -15 0
-16 2 -3 10 19 12 20 12 20 0z m423 -40 c7 0 6 -5 -3 -10 -13 -9 -12 -12 4
-25 11 -8 34 -15 50 -16 30 -1 30 -1 6 -9 l-25 -7 25 -11 c21 -8 27 -7 34 9 9
20 26 26 26 10 0 -14 -30 -41 -45 -41 -8 0 -17 -5 -21 -12 -5 -7 -3 -8 7 -3
10 6 9 3 -2 -11 -9 -10 -14 -24 -12 -31 2 -6 -1 -14 -6 -18 -6 -3 -11 -1 -11
5 0 7 -12 21 -26 32 -18 15 -24 28 -21 45 3 18 -2 27 -24 40 -35 21 -37 48 -7
80 l23 24 8 -25 c5 -14 14 -26 20 -26z m-503 31 c0 -5 -7 -11 -15 -15 -9 -3
-15 0 -15 9 0 8 7 15 15 15 8 0 15 -4 15 -9z m369 -11 c26 -13 40 -28 43 -45
3 -14 2 -25 -2 -25 -4 0 -10 -10 -13 -21 -4 -15 1 -27 16 -39 22 -18 22 -18 2
-40 -13 -14 -20 -37 -20 -65 -1 -39 1 -43 16 -34 23 12 39 12 39 -1 0 -5 -9
-10 -20 -10 -12 0 -20 -7 -20 -16 0 -9 9 -18 20 -21 11 -3 20 -13 19 -22 0
-10 -2 -11 -6 -3 -6 16 -28 15 -42 -2 -7 -8 -25 -12 -49 -10 l-37 4 25 -19
c21 -17 27 -18 44 -5 35 24 41 15 11 -16 -16 -16 -25 -30 -19 -30 5 0 3 -4 -4
-8 -7 -5 -10 -16 -6 -25 3 -9 11 -14 17 -10 6 3 7 1 3 -5 -4 -6 -13 -9 -21 -6
-8 4 -12 10 -9 15 3 5 -1 9 -10 9 -8 0 -16 -6 -18 -12 -3 -9 -9 -8 -21 4 -19
18 -23 33 -7 23 13 -8 40 19 40 41 0 16 -1 16 -15 -2 -13 -17 -16 -17 -26 -4
-9 13 -10 12 -5 -3 4 -12 2 -17 -6 -14 -7 2 -12 13 -11 23 2 10 4 29 5 42 1
12 6 22 11 22 5 0 5 -10 1 -22 l-6 -23 20 20 c18 18 19 21 4 33 -9 6 -25 12
-36 12 -19 0 -66 36 -66 51 0 17 44 49 51 38 3 -6 7 1 7 16 0 15 -4 22 -8 16
-5 -9 -10 -8 -19 2 -9 12 -8 16 5 21 9 3 20 3 26 0 7 -4 7 2 3 17 -7 21 -6 22
9 10 10 -9 16 -10 16 -2 0 22 -2 26 -12 23 -7 -2 -8 8 -5 25 4 20 -1 36 -18
57 -22 28 -22 31 -7 43 25 18 67 16 111 -7z m799 -5 c0 -14 -4 -25 -9 -25 -5
0 -9 6 -9 13 0 8 -4 7 -11 -3 -9 -12 -10 -12 -5 3 3 10 6 23 6 28 0 5 6 9 14
9 8 0 14 -10 14 -25z m641 -14 c19 -14 46 -26 60 -26 23 0 26 -4 26 -33 0 -18
5 -36 11 -40 8 -5 8 -15 3 -30 -10 -26 -50 -28 -56 -2 -4 12 -3 12 5 2 7 -11
10 -9 15 7 6 24 -20 30 -41 9 -9 -9 -12 -7 -12 11 0 15 5 21 13 18 21 -8 39 7
31 26 -3 9 -13 17 -21 17 -9 0 -22 8 -29 18 -8 10 -13 12 -14 5 0 -7 11 -20
25 -29 14 -9 25 -21 25 -26 0 -6 -6 -6 -14 1 -10 8 -16 9 -21 1 -3 -6 -11 -7
-17 -4 -7 4 -7 9 1 13 8 5 7 16 -5 39 -17 35 -21 37 -60 22 -19 -7 -30 -7 -40
1 -14 12 -9 33 6 24 4 -3 19 -1 32 4 25 10 28 9 77 -28z m-1861 9 c-7 -11 -21
-20 -30 -20 -25 0 -22 13 5 26 33 17 38 16 25 -6z m620 1 c15 -10 34 -21 42
-25 8 -3 -3 -3 -25 0 -40 6 -65 19 -65 35 0 14 20 10 48 -10z m-538 -21 c0
-11 -2 -20 -4 -20 -2 0 -11 -3 -20 -6 -13 -5 -13 -2 -3 20 14 31 27 34 27 6z
m786 -11 c4 -7 -2 -7 -17 1 -19 10 -22 10 -12 0 6 -7 9 -19 6 -26 -6 -16 -33
-19 -33 -4 0 6 5 10 12 10 32 0 -14 17 -51 19 -22 1 0 19 29 23 27 4 55 -5 66
-23z m287 24 c-7 -2 -19 -2 -25 0 -7 3 -2 5 12 5 14 0 19 -2 13 -5z m2047 -3
c13 -8 13 -10 -2 -10 -9 0 -20 5 -23 10 -8 13 5 13 25 0z m-3261 -22 c-1 -18
-2 -19 -6 -5 -2 9 -8 15 -13 12 -13 -8 0 -35 17 -35 8 0 11 -4 8 -10 -3 -5 1
-10 9 -10 19 0 21 -14 3 -28 -10 -8 -19 -8 -33 1 -10 7 -29 12 -41 11 -16 -1
-23 4 -23 17 0 24 -30 40 -60 32 -16 -4 -21 -3 -16 5 4 7 18 12 32 12 13 0 24
5 24 10 0 6 23 10 50 10 46 0 50 -2 49 -22z m82 -8 c6 0 7 -6 2 -12 -4 -7 -7
-22 -5 -33 l2 -20 -9 20 c-5 11 -10 16 -10 12 -1 -4 -11 1 -23 13 -12 11 -20
21 -17 22 37 23 44 25 47 12 2 -8 8 -14 13 -14z m1742 -5 c13 -18 14 -25 5
-25 -7 0 -19 9 -26 20 -7 11 -17 20 -22 20 -6 0 -10 -9 -10 -20 0 -11 5 -20
10 -20 6 0 10 -5 10 -12 0 -6 -11 -1 -25 12 l-26 24 22 17 c27 20 38 17 62
-16z m-243 -3 c0 -15 -2 -15 -10 -2 -13 20 -13 33 0 25 6 -3 10 -14 10 -23z
m294 12 c9 -8 16 -23 16 -32 -1 -15 -2 -15 -13 -2 -7 8 -20 23 -30 33 -15 14
-16 17 -3 17 8 0 22 -7 30 -16z m5210 -3 c6 -9 -31 -48 -38 -40 -2 2 0 14 5
27 9 23 24 29 33 13z m-7779 -11 c3 -5 -1 -10 -10 -10 -9 0 -13 5 -10 10 3 6
8 10 10 10 2 0 7 -4 10 -10z m237 -12 c22 -18 28 -43 15 -58 -9 -10 -9 -11 1
-6 16 9 15 -5 -2 -29 -9 -13 -13 -41 -11 -77 2 -32 -1 -58 -6 -58 -5 0 -9 12
-9 28 l0 27 -21 -32 c-22 -34 -33 -40 -44 -23 -3 6 -1 10 6 10 8 0 5 7 -6 20
-9 10 -15 26 -12 35 4 8 2 15 -3 15 -6 0 -10 -4 -10 -9 0 -5 -14 -11 -31 -13
-26 -4 -30 -2 -26 14 4 14 -1 18 -21 19 -26 0 -26 1 -4 9 12 5 22 14 22 21 0
6 -6 9 -13 6 -8 -3 -20 -1 -27 3 -10 6 -7 10 13 15 26 7 38 25 17 25 -5 0 -10
7 -10 15 0 8 5 15 11 15 6 0 9 6 6 14 -4 9 0 13 11 10 9 -1 36 -5 60 -8 35 -3
42 -1 38 10 -7 18 34 19 56 2z m2136 -16 c6 -19 -13 -14 -33 8 -18 20 -18 21
5 12 13 -5 26 -14 28 -20z m-903 -2 c3 -5 -3 -10 -15 -10 -12 0 -18 5 -15 10
3 6 10 10 15 10 5 0 12 -4 15 -10z m195 1 c8 -2 -24 -21 -36 -21 -7 0 -14 6
-17 13 -4 11 27 16 53 8z m780 -1 c0 -5 -7 -10 -16 -10 -8 0 -12 5 -9 10 3 6
10 10 16 10 5 0 9 -4 9 -10z m-907 -7 c-7 -2 -19 -2 -25 0 -7 3 -2 5 12 5 14
0 19 -2 13 -5z m1686 -2 c7 -5 12 -13 10 -19 -3 -7 -14 -3 -29 8 -25 20 -10
29 19 11z m-2395 -10 c11 -4 15 -10 10 -13 -5 -4 -18 0 -29 8 -20 15 -12 17
19 5z m91 -11 c5 -9 -17 -14 -30 -7 -7 3 -32 -35 -38 -58 -2 -11 -3 -5 -1 13
2 19 8 40 15 48 13 16 45 19 54 4z m595 -12 c21 -26 16 -45 -7 -26 -12 10 -17
9 -28 -5 -17 -23 -29 -22 -22 3 3 11 1 18 -4 14 -5 -3 -9 0 -9 6 0 8 28 26 48
29 2 1 12 -9 22 -21z m250 18 c0 -11 -19 -15 -25 -6 -3 5 1 10 9 10 9 0 16 -2
16 -4z m600 -6 c0 -5 -4 -10 -10 -10 -5 0 -10 5 -10 10 0 6 5 10 10 10 6 0 10
-4 10 -10z m700 -30 c0 -5 -10 -3 -23 3 -13 6 -24 16 -24 23 0 9 7 8 24 -3 13
-8 23 -19 23 -23z m-2283 -2 c-3 -8 -6 -5 -6 6 -1 11 2 17 5 13 3 -3 4 -12 1
-19z m2223 7 c0 -8 -7 -15 -15 -15 -8 0 -15 5 -15 11 0 5 5 7 10 4 6 -3 10 -1
10 4 0 6 2 11 5 11 3 0 5 -7 5 -15z m595 5 c3 -6 -1 -7 -9 -4 -18 7 -21 14 -7
14 6 0 13 -4 16 -10z m-2665 -25 c-7 -8 -8 -20 -4 -27 4 -7 4 -10 -1 -6 -4 4
-14 1 -22 -7 -8 -8 -19 -15 -24 -15 -16 0 1 43 24 62 24 19 44 13 27 -7z
m2287 19 c-3 -3 -12 -4 -19 -1 -8 3 -5 6 6 6 11 1 17 -2 13 -5z m33 -4 c0 -5
-5 -10 -11 -10 -5 0 -7 5 -4 10 3 6 8 10 11 10 2 0 4 -4 4 -10z m-1644 -25 c3
-14 7 -36 8 -49 0 -13 4 -22 7 -20 14 8 16 -46 2 -58 -10 -8 -11 -14 -3 -22 7
-7 4 -13 -10 -21 -18 -10 -18 -13 -5 -39 8 -15 15 -38 15 -49 0 -26 -13 -14
-17 16 -2 12 -14 32 -27 44 l-24 22 -7 -37 c-7 -35 -8 -35 -15 -12 -3 14 -2
29 4 33 6 5 -1 6 -16 3 -16 -4 -28 -1 -30 6 -7 20 -28 -2 -29 -30 -2 -24 -2
-24 -6 -4 -4 20 -33 33 -33 13 0 -4 -11 -6 -25 -3 -32 6 -33 22 -1 22 38 0 56
10 72 41 8 16 21 29 30 29 11 0 14 6 8 23 -3 12 -3 19 1 15 9 -9 35 9 35 23 0
5 -7 9 -16 9 -8 0 -12 5 -9 10 11 18 34 10 37 -12 2 -13 11 -24 22 -26 14 -3
17 0 13 11 -3 9 -1 18 6 20 8 3 7 9 -4 18 -27 23 -31 49 -9 49 13 0 22 -9 26
-25z m2960 -22 c-8 -8 -12 -3 -21 27 l-7 25 17 -23 c9 -13 14 -26 11 -29z
m-2550 2 c-6 -31 -4 -37 16 -45 13 -5 19 -9 13 -10 -5 0 -3 -4 5 -10 8 -5 11
-12 6 -17 -4 -4 -12 0 -17 10 -14 24 -29 21 -29 -6 0 -23 -25 -67 -38 -67 -4
0 -15 12 -25 28 -10 15 -16 20 -15 10 2 -9 -1 -17 -7 -17 -5 0 -9 7 -7 15 2 9
-6 14 -25 15 -39 1 -58 11 -59 32 -2 32 -4 37 -13 37 -4 0 -7 -11 -6 -24 3
-22 0 -23 -29 -16 -18 4 -39 11 -47 16 -18 11 -20 54 -2 54 7 0 13 -11 13 -24
0 -16 7 -26 22 -29 31 -8 33 -2 8 23 -27 27 -16 46 16 26 13 -9 31 -16 40 -16
11 0 14 -5 9 -17 -5 -14 -3 -15 6 -6 14 14 39 -6 39 -31 0 -9 5 -16 10 -16 6
0 10 7 10 15 0 8 5 15 10 15 6 0 10 -7 10 -15 0 -28 37 6 62 57 13 26 25 47
27 48 2 0 0 -16 -3 -35z m-1686 -6 c6 -10 7 -19 3 -19 -4 0 -13 11 -20 25 -13
29 2 24 17 -6z m2407 6 c0 -10 -4 -12 -12 -5 -7 5 -16 6 -20 2 -5 -4 -5 -1 -1
6 10 17 33 15 33 -3z m582 -9 c15 -16 21 -31 17 -44 -8 -23 -32 -36 -41 -22
-4 6 -2 10 3 10 6 0 12 7 15 14 4 10 1 13 -9 9 -7 -3 -14 -1 -14 5 0 6 6 13
13 15 8 4 6 6 -4 6 -9 1 -16 8 -16 16 0 21 10 19 36 -9z m-1843 -5 c0 -11 -4
-17 -8 -15 -4 3 -8 12 -8 20 0 8 4 14 8 14 4 0 8 -9 8 -19z m237 4 c4 -8 1
-17 -5 -21 -7 -4 -8 -3 -4 4 4 7 2 12 -3 12 -6 0 -11 5 -11 10 0 15 17 12 23
-5z m977 -5 c0 -15 -7 -20 -25 -20 -14 0 -25 -4 -25 -8 0 -5 14 -7 30 -4 32 5
42 -16 18 -35 -17 -12 -60 -14 -53 -3 3 6 -1 7 -9 4 -8 -3 -17 -12 -20 -19 -3
-9 0 -12 10 -8 8 3 14 -1 14 -10 0 -8 -9 -17 -20 -20 -17 -4 -20 0 -20 28 0
33 20 61 35 47 5 -4 5 -1 0 7 -5 9 2 21 21 37 36 29 44 30 44 4z m910 10 c0
-5 -5 -10 -11 -10 -5 0 -7 5 -4 10 3 6 8 10 11 10 2 0 4 -4 4 -10z m1070 0 c0
-5 -2 -10 -4 -10 -3 0 -8 5 -11 10 -3 6 -1 10 4 10 6 0 11 -4 11 -10z m-3635
-10 c3 -5 2 -10 -4 -10 -5 0 -13 5 -16 10 -3 6 -2 10 4 10 5 0 13 -4 16 -10z
m400 -10 c3 -5 1 -10 -4 -10 -6 0 -11 5 -11 10 0 6 2 10 4 10 3 0 8 -4 11 -10z
m2224 6 c-2 -2 -14 -9 -26 -15 -19 -10 -22 -9 -17 4 4 8 15 15 27 15 11 0 18
-2 16 -4z m-929 -22 c0 -8 -4 -12 -10 -9 -5 3 -10 10 -10 16 0 5 5 9 10 9 6 0
10 -7 10 -16z m-1800 -4 c13 -9 13 -10 0 -10 -8 0 -22 5 -30 10 -13 9 -13 10
0 10 8 0 22 -5 30 -10z m1327 -18 c6 -4 17 -20 22 -35 10 -25 15 -28 40 -22
54 12 120 -38 124 -93 1 -16 5 -28 8 -26 10 6 18 -69 9 -79 -17 -19 -46 -13
-63 12 -17 24 -18 24 -12 4 8 -28 -4 -51 -15 -32 -7 10 -12 10 -23 1 -17 -14
-28 -6 -20 15 5 12 1 14 -15 8 -29 -9 -28 3 1 14 22 9 22 9 -6 21 -39 19 -77
-2 -77 -42 0 -15 -4 -28 -10 -28 -5 0 -10 12 -10 26 0 14 -10 38 -21 52 l-21
27 7 -25 c4 -14 10 -31 13 -38 3 -9 -4 -12 -24 -9 -33 4 -42 27 -19 50 9 9 16
19 15 22 -1 26 2 35 10 30 5 -3 15 5 21 18 6 14 23 30 37 37 20 9 23 13 12 20
-17 11 -32 3 -24 -13 3 -7 -1 -4 -10 7 -18 22 -5 56 22 57 9 0 1 7 -18 14
l-35 13 35 1 c19 0 40 -3 47 -7z m1333 4 c0 -3 -4 -8 -10 -11 -5 -3 -10 -1
-10 4 0 6 5 11 10 11 6 0 10 -2 10 -4z m470 -11 c11 -13 10 -14 -4 -9 -9 3
-16 10 -16 15 0 13 6 11 20 -6z m-3230 -3 c0 -11 -22 -32 -34 -32 -5 0 -1 7
10 15 18 13 18 14 -8 9 -16 -2 -28 0 -28 6 0 5 14 10 30 10 17 0 30 -4 30 -8z
m1550 4 c0 -11 -19 -15 -25 -6 -3 5 1 10 9 10 9 0 16 -2 16 -4z m720 -17 c0
-5 -12 -9 -26 -9 -14 0 -23 4 -19 10 4 6 11 8 16 5 5 -4 9 -1 9 5 0 6 5 8 10
5 6 -3 10 -10 10 -16z m800 11 c8 -5 11 -10 5 -10 -5 0 -17 5 -25 10 -8 5 -10
10 -5 10 6 0 17 -5 25 -10z m-3910 -15 c20 -24 6 -28 -15 -5 -10 11 -13 20 -8
20 6 0 16 -7 23 -15z m102 1 c3 2 8 -2 12 -11 5 -13 2 -14 -15 -5 -11 6 -30 8
-42 5 -22 -7 -22 -7 -2 8 12 10 24 12 31 6 6 -5 13 -6 16 -3z m278 4 c0 -5 -2
-10 -4 -10 -3 0 -8 5 -11 10 -3 6 -1 10 4 10 6 0 11 -4 11 -10z m1734 -19 c-4
-3 -9 0 -11 7 -3 6 -10 9 -15 6 -7 -4 -8 -2 -4 5 6 9 11 9 22 0 8 -6 12 -15 8
-18z m912 21 c-3 -5 -20 -9 -38 -9 -27 -1 -29 1 -13 7 27 11 57 12 51 2z
m-1996 -58 c0 -2 -4 -4 -10 -4 -5 0 -10 6 -10 14 0 8 -5 16 -12 18 -6 2 -8 10
-4 17 6 9 12 5 22 -14 8 -15 14 -29 14 -31z m360 41 c-11 -13 -10 -14 4 -9 9
3 16 2 16 -4 0 -15 -32 -24 -43 -13 -14 14 -1 41 19 41 14 0 14 -3 4 -15z
m1066 -21 c-15 -14 -16 -14 -16 6 0 12 5 18 10 15 6 -3 10 0 11 7 0 10 2 10 6
1 2 -7 -3 -20 -11 -29z m-1149 -82 c10 -6 25 -10 34 -7 10 3 20 1 24 -5 3 -5
-1 -10 -9 -10 -9 0 -16 -7 -16 -15 0 -9 6 -12 17 -8 12 5 15 2 10 -10 -4 -11
1 -21 16 -28 28 -15 37 -28 37 -56 0 -24 -14 -38 -30 -28 -8 5 -7 11 0 20 8
10 8 19 0 34 -13 25 -26 27 -33 7 -4 -10 -1 -13 9 -9 7 3 14 0 14 -6 0 -6 -5
-11 -11 -11 -7 0 -9 -12 -5 -34 4 -20 2 -37 -4 -41 -5 -3 -10 -15 -10 -26 0
-10 -5 -19 -11 -19 -6 0 -8 8 -4 19 6 21 -10 38 -20 21 -3 -5 -13 -10 -21 -10
-12 0 -12 3 1 24 11 16 13 26 6 31 -6 3 -11 1 -11 -5 0 -28 -18 4 -24 42 -5
30 -16 50 -39 69 l-32 27 37 -11 c20 -6 34 -15 32 -19 -3 -4 0 -8 5 -8 6 0 11
7 11 15 0 21 -4 30 -12 28 -4 -2 -5 3 -2 11 3 9 -1 13 -12 13 -21 -2 -27 13
-14 33 9 13 11 13 20 0 10 -13 11 -13 9 0 -1 8 0 31 1 50 2 33 3 32 12 -15 5
-27 16 -56 25 -63z m868 98 c3 -5 1 -10 -4 -10 -6 0 -11 5 -11 10 0 6 2 10 4
10 3 0 8 -4 11 -10z m-1813 -44 c-2 -20 1 -42 6 -49 11 -14 12 -47 1 -47 -3 0
-9 -12 -12 -26 -3 -18 -1 -24 8 -20 25 9 24 -22 -1 -51 -13 -15 -24 -22 -24
-15 0 6 -7 12 -16 12 -11 0 -15 -6 -11 -20 7 -27 -7 -25 -22 3 -13 25 -38 31
-58 15 -12 -10 -33 -3 -33 11 0 7 28 17 98 37 11 3 11 6 0 18 -11 11 -14 11
-24 -2 -9 -13 -11 -7 -9 28 1 27 9 48 19 56 10 7 13 13 6 16 -20 6 1 38 25 38
13 0 26 4 29 9 4 5 -4 7 -16 4 -23 -4 -23 -4 -3 11 28 24 40 14 37 -28z m1528
13 c0 -16 -21 -20 -35 -5 -24 24 -19 37 10 24 14 -6 25 -15 25 -19z m150 21
c0 -5 -4 -10 -10 -10 -5 0 -10 5 -10 10 0 6 5 10 10 10 6 0 10 -4 10 -10z
m-1990 -10 c-10 -6 -11 -10 -2 -10 6 0 12 -7 12 -16 0 -8 4 -13 9 -10 5 3 15
-2 22 -11 12 -15 12 -16 -4 -10 -10 4 -23 7 -28 7 -5 0 -9 6 -9 14 0 9 -8 12
-27 8 -28 -5 -28 -5 -9 17 11 11 26 21 35 21 14 0 14 -2 1 -10z m223 -4 c3 -8
-2 -16 -12 -19 -14 -3 -17 0 -14 14 6 22 19 25 26 5z m441 5 c8 -13 -3 -19
-24 -14 -11 3 -17 9 -14 14 7 11 31 12 38 0z m46 5 c0 -2 -7 -6 -15 -10 -8 -3
-15 -1 -15 4 0 6 7 10 15 10 8 0 15 -2 15 -4z m105 -23 c-2 -16 -4 -32 -6 -38
-4 -18 13 -45 28 -45 12 0 12 3 -2 16 -33 33 4 63 62 48 44 -11 61 -45 19 -37
-19 4 -28 0 -32 -13 -4 -11 -13 -26 -21 -35 -12 -14 -12 -17 2 -22 8 -4 15
-16 15 -27 0 -12 3 -19 8 -17 4 3 8 -10 9 -29 2 -23 -1 -34 -10 -34 -8 0 -22
-9 -32 -20 -22 -24 -31 -25 -39 -4 -3 8 -2 12 4 9 12 -8 13 5 1 24 -6 9 -6 22
1 34 7 14 7 18 -1 12 -13 -7 -6 35 11 67 6 14 5 16 -7 12 -9 -4 -15 0 -15 9 0
8 -20 30 -45 48 -24 19 -45 40 -45 48 0 12 3 11 13 -2 11 -16 14 -16 42 3 40
26 45 25 40 -7z m50 17 c8 -13 -5 -13 -25 0 -13 8 -13 10 2 10 9 0 20 -4 23
-10z m2229 -6 c18 -18 19 -24 7 -43 -7 -11 -13 -10 -35 4 -31 20 -35 30 -6 15
14 -8 20 -8 20 0 0 6 -7 13 -15 16 -8 4 -15 10 -15 15 0 14 27 10 44 -7z m836
6 c0 -5 -4 -10 -9 -10 -6 0 -13 5 -16 10 -3 6 1 10 9 10 9 0 16 -4 16 -10z
m-3536 -15 c8 -22 -14 -65 -33 -65 -20 0 -43 34 -35 54 3 8 15 17 27 19 12 2
25 5 28 6 4 0 9 -6 13 -14z m1236 0 c0 -9 -6 -12 -16 -8 -13 5 -13 7 -2 14 17
11 18 11 18 -6z m426 -32 c4 -13 10 -23 15 -23 11 0 27 32 23 48 -1 7 0 8 3 3
2 -6 4 -13 3 -17 -1 -4 4 -11 12 -15 10 -7 10 -9 1 -9 -7 0 -13 -9 -13 -20 0
-11 -4 -20 -10 -20 -5 0 -6 8 -3 18 6 14 4 15 -9 4 -14 -11 -17 -10 -23 10 -4
13 -17 34 -29 47 l-21 24 23 -14 c12 -8 25 -24 28 -36z m1408 31 c18 -17 13
-36 -8 -28 -13 5 -31 -34 -21 -45 3 -2 5 1 5 7 0 7 9 12 20 12 18 0 25 -11 21
-34 -1 -5 6 -18 16 -29 18 -19 17 -20 -9 -15 -20 4 -28 1 -28 -8 0 -8 -4 -14
-10 -14 -5 0 -10 9 -10 20 0 11 -6 20 -12 21 -9 0 -9 2 1 6 10 4 10 7 1 13 -6
4 -13 13 -14 21 -8 38 -19 50 -41 45 -14 -4 -25 -1 -28 7 -3 9 8 11 40 8 24
-1 43 1 42 5 -5 28 12 32 35 8z m-3414 -4 c0 -5 -2 -10 -4 -10 -3 0 -8 5 -11
10 -3 6 -1 10 4 10 6 0 11 -4 11 -10z m67 4 c-3 -3 -12 -4 -19 -1 -8 3 -5 6 6
6 11 1 17 -2 13 -5z m354 -52 c-14 -11 -13 -12 6 -3 27 13 36 14 28 2 -3 -5
-1 -12 5 -16 5 -3 10 1 10 9 0 8 -5 18 -12 22 -7 5 -5 11 7 21 24 16 39 17 29
1 -6 -10 -5 -10 8 -1 22 19 29 4 13 -26 -19 -36 -70 -91 -84 -91 -15 0 -14 37
2 43 7 3 5 6 -5 6 -12 1 -18 -6 -18 -19 0 -24 -18 -27 -26 -5 -4 11 -13 13
-28 9 -20 -6 -20 -5 3 15 13 11 28 21 33 21 12 0 10 18 -6 32 -11 10 -10 14 8
23 17 9 23 8 32 -9 10 -16 9 -23 -5 -34z m899 48 c0 -5 -8 -10 -17 -10 -15 0
-16 2 -3 10 19 12 20 12 20 0z m1650 -14 c0 -7 -10 -12 -22 -10 -13 1 -33 3
-45 3 -13 1 -23 6 -23 12 0 5 4 7 10 4 5 -3 17 -2 26 3 21 12 54 4 54 -12z
m-1706 -2 c8 -21 8 -24 -3 -24 -5 0 -11 9 -14 20 -6 24 8 27 17 4z m586 6 c0
-5 -10 -10 -22 -9 -22 0 -22 1 -3 9 11 5 21 9 23 9 1 1 2 -3 2 -9z m633 3 c-7
-2 -19 -2 -25 0 -7 3 -2 5 12 5 14 0 19 -2 13 -5z m-2426 -9 c-3 -3 -12 -4
-19 -1 -8 3 -5 6 6 6 11 1 17 -2 13 -5z m2540 -10 c-3 -3 -12 -4 -19 -1 -8 3
-5 6 6 6 11 1 17 -2 13 -5z m691 -16 c-3 -7 -13 -15 -24 -17 -16 -3 -17 -1 -5
13 16 19 34 21 29 4z m649 -3 c9 -24 -1 -27 -15 -5 -8 13 -8 20 -2 20 6 0 13
-7 17 -15z m-3857 -5 c0 -5 -4 -10 -10 -10 -5 0 -10 5 -10 10 0 6 5 10 10 10
6 0 10 -4 10 -10z m550 1 c0 -12 -20 -25 -27 -18 -7 7 6 27 18 27 5 0 9 -4 9
-9z m66 -2 c10 -17 -12 -32 -35 -24 -29 9 -27 35 3 35 14 0 28 -5 32 -11z
m1101 5 c-3 -3 -12 -4 -19 -1 -8 3 -5 6 6 6 11 1 17 -2 13 -5z m963 -41 c0 -7
-10 -13 -21 -13 -19 0 -20 2 -8 18 12 15 12 16 -1 6 -8 -6 -25 -15 -38 -19
-33 -10 -24 15 13 36 27 16 31 16 43 1 6 -9 12 -22 12 -29z m279 16 c14 -42
14 -49 -3 -49 -8 0 -17 11 -20 24 -3 14 -13 32 -22 40 -14 15 -13 16 9 16 19
0 28 -8 36 -31z m-1614 1 c3 -5 1 -10 -4 -10 -6 0 -11 5 -11 10 0 6 2 10 4 10
3 0 8 -4 11 -10z m258 -10 c3 -11 1 -18 -4 -14 -5 3 -9 0 -9 -5 0 -6 -7 -11
-15 -11 -8 0 -15 5 -15 10 0 6 7 10 15 10 9 0 12 6 9 15 -4 8 -2 15 4 15 5 0
12 -9 15 -20z m-1775 -15 c-3 -3 -9 2 -12 12 -6 14 -5 15 5 6 7 -7 10 -15 7
-18z m1422 16 c0 -14 -30 -22 -31 -8 0 7 -4 3 -9 -8 -6 -15 -9 -16 -9 -4 -1 9
2 19 6 22 10 10 43 8 43 -2z m459 -27 c-18 -22 -49 -37 -49 -24 0 5 7 10 15
10 8 0 15 5 15 10 0 16 24 40 28 29 2 -5 -2 -17 -9 -25z m91 26 c0 -5 -7 -7
-15 -4 -8 4 -15 8 -15 10 0 2 7 4 15 4 8 0 15 -4 15 -10z m710 -10 c0 -22 -28
-39 -39 -23 -3 6 -13 13 -21 17 -8 3 -2 4 13 1 17 -4 26 -2 23 4 -5 8 2 14 22
20 1 1 2 -8 2 -19z m1510 11 c0 -5 -9 -7 -20 -4 -11 3 -20 7 -20 9 0 2 9 4 20
4 11 0 20 -4 20 -9z m-4036 -10 c3 -5 -6 -8 -19 -8 -14 0 -25 3 -25 8 0 5 9 9
19 9 11 0 22 -4 25 -9z m2906 -24 c0 -23 -2 -22 -19 10 -10 19 -9 22 4 17 8
-4 15 -15 15 -27z m-2973 -3 c-3 -4 -14 -3 -24 0 -15 6 -15 8 -3 16 16 10 39
-4 27 -16z m688 -22 c-11 -11 -27 17 -20 35 6 16 8 16 16 -6 5 -13 7 -26 4
-29z m1255 38 c0 -5 -5 -10 -11 -10 -5 0 -7 5 -4 10 3 6 8 10 11 10 2 0 4 -4
4 -10z m725 -15 c13 -26 62 -74 69 -68 2 3 2 -5 -1 -16 -4 -15 -1 -20 8 -16
15 5 53 -58 42 -69 -13 -13 -24 -5 -18 13 3 12 0 21 -10 25 -10 3 -18 -1 -21
-12 -4 -9 -12 -31 -20 -49 -8 -17 -14 -39 -14 -48 0 -9 -6 -15 -12 -12 -7 2
-12 10 -10 16 1 6 -7 11 -18 11 -11 0 -20 4 -20 9 0 14 -51 10 -57 -5 -3 -8
-9 -11 -14 -8 -5 3 -6 -2 -3 -10 4 -11 0 -16 -10 -16 -9 0 -16 -5 -16 -11 0
-5 5 -7 11 -3 7 4 10 1 7 -7 -5 -14 -35 -32 -72 -44 -19 -5 -19 -6 0 -20 16
-13 17 -16 4 -24 -11 -8 -17 -5 -22 9 -4 11 -12 20 -18 20 -6 0 -8 10 -4 26 5
18 3 25 -4 20 -6 -3 -13 0 -16 6 -3 7 -3 3 0 -9 3 -14 1 -23 -6 -23 -6 0 -8
-5 -4 -12 5 -8 2 -9 -10 -5 -10 4 -24 7 -32 7 -8 0 -14 8 -15 18 0 13 -2 12
-9 -5 -5 -13 -16 -23 -25 -23 -20 0 -19 16 1 24 16 6 16 8 0 24 -26 29 -15 87
16 87 7 0 14 8 16 17 2 11 -13 26 -45 45 -44 25 -46 28 -23 31 14 2 39 10 57
18 37 17 76 6 93 -26 7 -13 18 -19 26 -16 8 3 14 1 14 -4 0 -6 5 -10 12 -10 6
0 1 11 -12 25 -16 17 -20 29 -14 35 14 14 44 2 44 -16 0 -18 21 -18 46 1 19
14 19 14 0 15 -15 0 -17 3 -9 11 6 6 9 18 5 27 -4 11 -1 14 10 9 10 -3 19 0
22 9 3 9 10 12 16 9 5 -3 10 2 10 13 0 38 36 42 55 7z m584 3 c12 -15 11 -18
-3 -18 -10 0 -16 8 -16 22 0 12 1 19 3 17 1 -2 9 -12 16 -21z m500 -4 c3 -16
1 -17 -13 -5 -19 16 -21 34 -3 29 6 -3 14 -13 16 -24z m-3259 -3 c0 -5 -7 -11
-15 -15 -15 -5 -20 5 -8 17 9 10 23 9 23 -2z m1208 -11 c7 -12 17 -18 22 -15
6 3 7 -1 4 -9 -7 -19 -16 -20 -33 -3 -9 7 -11 7 -8 1 4 -7 -1 -15 -10 -18 -15
-6 -15 -8 -3 -16 8 -5 11 -12 7 -16 -4 -4 -13 -2 -19 4 -17 17 -33 15 -18 -3
7 -8 21 -15 31 -15 21 0 23 -8 11 -28 -13 -19 -72 10 -73 35 0 4 -7 7 -15 5
-25 -5 0 31 40 59 20 13 36 27 36 32 0 14 15 7 28 -13z m1080 -8 c2 -12 -1
-22 -6 -22 -14 0 -43 36 -35 44 14 13 38 1 41 -22z m-2638 -10 c0 -14 -2 -14
-9 -3 -7 11 -11 10 -20 -5 -14 -24 -14 -9 0 17 11 22 29 17 29 -9z m204 19 c3
-5 -3 -11 -15 -14 -16 -4 -18 -3 -8 9 13 16 16 17 23 5z m1146 -1 c0 -5 -4
-10 -10 -10 -5 0 -10 5 -10 10 0 6 5 10 10 10 6 0 10 -4 10 -10z m1548 -22
c-2 -12 -8 -23 -14 -25 -7 -2 -10 6 -7 22 6 30 26 34 21 3z m1035 15 c-13 -2
-33 -2 -45 0 -13 2 -3 4 22 4 25 0 35 -2 23 -4z m-3993 -18 c7 -9 10 -18 7
-22 -8 -7 -37 15 -37 28 0 14 16 11 30 -6z m1470 2 c0 -8 -10 -19 -22 -25 -15
-7 -18 -11 -7 -11 8 -1 20 4 27 11 6 6 15 9 19 5 4 -4 2 -12 -4 -18 -8 -8 -9
-20 -2 -38 l10 -26 -21 23 c-12 13 -28 21 -36 18 -9 -4 -19 4 -26 20 -11 22
-9 28 7 40 24 18 55 18 55 1z m-1021 -1 c-18 -18 -82 -56 -87 -51 -7 7 34 37
63 47 27 8 29 9 24 4z m586 -6 c-3 -5 -16 -10 -28 -9 -21 0 -21 1 -2 9 28 12
37 12 30 0z m2370 0 c8 -13 -5 -13 -25 0 -13 8 -13 10 2 10 9 0 20 -4 23 -10z
m230 -4 c8 -7 11 -16 8 -20 -11 -11 -21 -6 -26 14 -6 23 -1 25 18 6z m430 4
c3 -5 2 -10 -4 -10 -5 0 -13 5 -16 10 -3 6 -2 10 4 10 5 0 13 -4 16 -10z
m-1955 -10 c0 -5 -5 -10 -11 -10 -5 0 -7 5 -4 10 3 6 8 10 11 10 2 0 4 -4 4
-10z m1005 -2 c17 2 17 1 5 -7 -13 -9 -12 -11 4 -11 18 0 18 -1 1 -20 -21 -23
-50 -27 -42 -5 5 11 1 12 -17 5 -14 -5 -28 -4 -37 2 -11 8 -11 9 2 5 11 -4 20
3 28 19 7 16 15 22 24 17 6 -4 21 -6 32 -5z m448 3 c5 -1 6 -5 3 -10 -4 -5 0
-12 6 -14 7 -3 0 -6 -16 -6 -33 -1 -26 -15 7 -17 12 -1 34 -4 50 -9 24 -6 27
-4 27 15 0 21 4 22 41 17 49 -6 53 -10 44 -36 -4 -12 -15 -21 -27 -21 -17 0
-18 3 -8 15 10 12 9 16 -4 21 -9 4 -20 4 -23 0 -4 -3 2 -6 13 -6 18 -1 18 -1
1 -11 -13 -8 -17 -18 -13 -35 4 -14 2 -24 -4 -24 -5 0 -10 9 -10 20 0 11 -4
20 -9 20 -5 0 -5 -16 0 -37 12 -52 12 -52 -11 -46 -11 3 -18 9 -15 13 3 5 -16
18 -41 30 -45 22 -132 100 -112 100 6 0 19 -9 29 -21 10 -12 24 -19 31 -17 7
3 -4 16 -26 30 -36 25 -37 27 -15 31 13 2 35 3 49 1 14 -1 29 -3 33 -3z m1107
-1 c11 -7 6 -10 -20 -10 -26 0 -31 3 -20 10 8 5 17 10 20 10 3 0 12 -5 20 -10z
m55 -28 c-6 -7 -35 18 -35 31 0 5 9 2 20 -8 11 -10 18 -20 15 -23z m-1117 5
c2 -9 -2 -17 -8 -17 -7 0 -10 6 -7 14 3 8 2 17 -4 20 -5 2 -4 3 3 2 7 -1 14
-10 16 -19z m-1963 2 c4 -6 5 -12 2 -15 -7 -7 -37 7 -37 17 0 13 27 11 35 -2z
m2439 -43 c9 -42 7 -50 -9 -62 -23 -17 -44 -19 -27 -2 14 14 16 52 2 43 -5 -3
-10 1 -10 9 0 9 8 16 17 16 13 0 14 3 5 12 -16 16 -15 41 1 36 6 -3 16 -26 21
-52z m-2698 16 c-4 -10 -13 -19 -21 -19 -9 0 -14 5 -12 11 3 6 10 10 16 9 6
-2 11 5 11 14 0 9 3 14 6 10 3 -3 3 -14 0 -25z m2641 -4 c-3 -7 -5 -2 -5 12 0
14 2 19 5 13 2 -7 2 -19 0 -25z m-3592 12 c3 -5 1 -10 -4 -10 -6 0 -11 5 -11
10 0 6 2 10 4 10 3 0 8 -4 11 -10z m442 -1 c-11 -7 -23 -7 -28 -2 -5 5 3 9 19
11 24 1 25 0 9 -9z m841 -3 c20 -11 21 -14 8 -25 -8 -7 -12 -19 -9 -27 3 -9
-8 -27 -28 -44 -23 -22 -28 -30 -16 -30 9 0 19 1 22 3 2 1 11 -7 19 -18 13
-18 12 -22 -5 -38 -11 -10 -25 -15 -32 -11 -6 4 -9 4 -5 -1 8 -8 -20 -40 -28
-32 -3 3 -1 14 5 25 17 32 13 52 -10 52 -16 0 -20 -5 -16 -20 3 -11 0 -20 -5
-20 -7 0 -8 15 -4 40 5 33 4 38 -9 34 -8 -4 -12 -10 -9 -15 5 -9 -16 -14 -51
-10 -15 1 -17 -1 -7 -11 9 -9 8 -16 -5 -30 -9 -10 -12 -18 -6 -18 5 0 8 -13 5
-30 -5 -33 -5 -33 -52 -24 -32 7 -32 7 -27 56 5 44 4 48 -13 43 -20 -6 -36 24
-31 57 2 13 -2 16 -16 11 -10 -4 -21 -10 -24 -15 -7 -11 -66 -28 -73 -20 -9 8
-7 47 2 56 4 4 7 13 7 19 0 7 5 12 10 11 19 -1 70 -15 88 -25 12 -6 24 -5 40
5 15 10 27 12 37 6 8 -5 11 -10 6 -10 -5 0 -3 -6 3 -14 6 -7 9 -21 5 -30 -9
-22 8 -20 29 4 18 21 37 26 37 10 0 -5 -6 -10 -14 -10 -8 0 -17 -7 -20 -16 -5
-12 -2 -15 11 -9 10 4 24 8 31 8 6 0 12 12 12 26 1 23 2 24 11 9 5 -10 19 -18
30 -18 11 0 17 5 14 10 -3 6 -2 10 4 10 6 0 8 7 5 15 -4 8 -13 15 -22 15 -38
0 7 20 51 22 26 2 47 6 47 11 0 4 -6 7 -14 7 -8 0 -18 5 -21 10 -8 13 5 12 33
-4z m1689 -6 c-5 -30 -16 -35 -31 -14 -11 14 -11 21 -3 26 22 14 37 8 34 -12z
m-472 0 c3 -5 2 -10 -4 -10 -5 0 -17 -3 -27 -7 -16 -6 -17 -5 -4 10 17 19 26
21 35 7z m1781 -4 c20 -20 18 -65 -3 -73 -25 -9 -33 -23 -33 -61 0 -20 -4 -31
-10 -27 -24 15 -7 101 21 110 20 7 27 35 9 35 -5 0 -10 7 -10 15 0 19 7 19 26
1z m-2866 -11 c-6 -7 -2 -15 11 -23 10 -7 19 -20 19 -30 -1 -16 -1 -16 -11 1
-5 9 -20 17 -32 17 -39 0 -63 35 -29 42 34 7 51 4 42 -7z m-1780 -5 c0 -5 -2
-10 -4 -10 -3 0 -8 5 -11 10 -3 6 -1 10 4 10 6 0 11 -4 11 -10z m350 1 c0 -6
-4 -13 -10 -16 -5 -3 -10 1 -10 9 0 9 5 16 10 16 6 0 10 -4 10 -9z m659 -32
c-14 -27 -59 -77 -59 -66 0 17 61 100 68 93 2 -3 -2 -15 -9 -27z m2231 14 c0
-6 -4 -15 -10 -18 -5 -3 -10 -18 -11 -33 0 -16 -3 -21 -6 -12 -12 31 -32 43
-49 30 -19 -16 -31 -5 -15 14 10 12 18 13 37 4 31 -14 45 -1 20 18 -19 13 -19
14 7 12 15 -1 27 -8 27 -15z m704 1 c4 -10 1 -14 -6 -12 -15 5 -23 28 -10 28
5 0 13 -7 16 -16z m-3034 -7 c0 -8 -7 -14 -15 -14 -25 0 -17 17 13 26 1 1 2
-5 2 -12z m2007 -9 c-3 -8 -6 -5 -6 6 -1 11 2 17 5 13 3 -3 4 -12 1 -19z
m-1730 6 c-3 -3 -12 -4 -19 -1 -8 3 -5 6 6 6 11 1 17 -2 13 -5z m873 -5 c0 -5
-4 -8 -9 -4 -11 6 -11 -35 0 -50 10 -14 0 -28 -33 -42 -22 -10 -29 -9 -42 6
-22 25 -21 29 19 45 19 8 35 20 35 26 0 6 -5 8 -12 4 -9 -5 -9 -2 1 9 15 19
41 23 41 6z m-320 -30 c0 -6 -4 -7 -10 -4 -5 3 -10 11 -10 16 0 6 5 7 10 4 6
-3 10 -11 10 -16z m455 11 c3 -5 1 -10 -4 -10 -6 0 -11 5 -11 10 0 6 2 10 4
10 3 0 8 -4 11 -10z m-1325 -15 c0 -9 -6 -12 -15 -9 -8 4 -12 10 -9 15 8 14
24 10 24 -6z m1050 -14 c0 -10 -9 -26 -20 -36 -11 -10 -20 -15 -20 -12 0 3
-12 0 -27 -8 -34 -18 -44 -10 -14 11 15 11 21 23 18 36 -5 16 -2 19 14 15 10
-3 17 -1 14 3 -6 9 16 20 28 13 4 -2 7 -12 7 -22z m753 -7 c-3 -7 -9 -12 -13
-9 -5 3 -3 -8 3 -25 7 -20 14 -25 19 -17 11 18 10 29 -3 21 -7 -4 -10 -1 -7 6
8 26 26 21 36 -10 6 -17 7 -28 2 -25 -5 3 -11 1 -15 -5 -3 -5 -2 -10 2 -10 5
0 17 -6 28 -13 17 -13 17 -14 -4 -20 -12 -3 -27 1 -35 9 -12 11 -15 9 -22 -14
-4 -15 -6 -33 -5 -40 1 -6 -2 -20 -8 -30 -9 -16 -10 -16 -16 1 -4 9 -11 17
-16 17 -14 0 -11 -28 4 -33 8 -4 7 -6 -3 -6 -23 -1 -44 15 -31 23 8 5 8 13 1
26 -11 21 -10 120 2 120 4 0 8 -4 8 -9 0 -5 9 -11 21 -14 12 -3 18 -10 15 -15
-3 -5 1 -15 9 -22 13 -10 15 -8 15 13 0 14 -4 28 -9 31 -16 10 -19 55 -4 60 8
4 11 11 7 18 -6 10 -4 10 8 0 9 -8 14 -20 11 -28z m675 24 c14 -14 16 -68 3
-68 -5 0 -12 9 -16 19 -4 14 -11 18 -23 14 -10 -4 -12 -8 -4 -11 18 -6 14 -22
-5 -22 -12 0 -18 8 -19 26 -2 18 2 24 13 20 9 -4 11 -2 7 6 -5 7 -2 9 9 5 11
-4 14 -2 10 9 -6 17 8 19 25 2z m1227 1 c11 -17 0 -20 -21 -4 -17 13 -17 14
-2 15 9 0 20 -5 23 -11z m-2902 -29 c-3 -11 -9 -20 -14 -20 -10 0 -12 33 -3
43 12 12 22 -3 17 -23z m80 8 c20 -2 37 -7 37 -13 -1 -11 -30 -53 -30 -42 0 4
1 8 3 10 6 7 -29 34 -40 30 -6 -3 -17 6 -24 19 -11 20 -10 21 3 11 8 -7 31
-14 51 -15z m-1193 -2 c0 -7 -8 -20 -17 -27 -16 -13 -17 -12 -5 3 8 9 11 22 7
28 -3 5 -1 10 4 10 6 0 11 -6 11 -14z m770 -23 c0 -8 -11 -13 -27 -12 -17 1
-21 3 -10 6 9 2 17 14 17 26 0 18 2 19 10 7 5 -8 10 -21 10 -27z m2065 19 c-3
-3 -11 0 -18 7 -9 10 -8 11 6 5 10 -3 15 -9 12 -12z m1305 -23 c0 -11 -5 -19
-10 -19 -12 0 -30 41 -23 53 8 13 33 -14 33 -34z m-3060 27 c0 -3 -4 -8 -10
-11 -5 -3 -10 -1 -10 4 0 6 5 11 10 11 6 0 10 -2 10 -4z m1142 -30 c4 -6 8
-14 8 -18 0 -16 -16 -6 -39 24 l-25 31 25 -13 c13 -7 27 -18 31 -24z m168 24
c0 -5 -7 -10 -16 -10 -8 0 -12 5 -9 10 3 6 10 10 16 10 5 0 9 -4 9 -10z
m-2059 -13 c1 -6 1 -34 1 -62 1 -44 -2 -50 -21 -53 -19 -3 -22 1 -19 20 2 13
7 26 11 29 5 3 9 12 10 20 2 8 6 20 10 27 6 8 2 12 -12 12 -29 0 -34 15 -5 18
13 1 24 -4 25 -11z m2927 -14 c2 -14 9 -19 20 -16 20 5 70 -43 57 -54 -4 -5
-10 -2 -13 6 -4 11 -6 11 -14 0 -7 -11 -8 -9 -6 6 2 12 -4 21 -14 23 -11 2
-18 -3 -18 -12 0 -9 -4 -16 -9 -16 -5 0 -7 9 -4 20 3 11 1 20 -4 20 -5 0 -15
12 -22 26 -10 22 -9 25 6 22 10 -2 19 -13 21 -25z m-2598 13 c0 -3 -4 -8 -10
-11 -5 -3 -10 -1 -10 4 0 6 5 11 10 11 6 0 10 -2 10 -4z m490 -13 c0 -9 7 -24
16 -34 29 -32 5 -37 -30 -6 -26 24 -32 35 -24 44 15 18 38 16 38 -4z m1047
-45 c-12 -8 -20 2 -32 42 -7 23 -7 23 18 -5 17 -21 22 -32 14 -37z m993 48 c0
-8 6 -16 13 -19 16 -6 -6 -43 -24 -39 -7 2 -15 -2 -19 -8 -8 -12 -40 -3 -40
12 0 6 6 8 13 5 7 -3 22 2 32 10 19 15 19 15 -2 10 -13 -3 -23 -1 -23 4 0 5 7
9 15 9 8 0 15 7 15 15 0 8 5 15 10 15 6 0 10 -6 10 -14z m-3573 -18 c-3 -8 -6
-5 -6 6 -1 11 2 17 5 13 3 -3 4 -12 1 -19z m753 12 c0 -5 -4 -10 -10 -10 -5 0
-10 5 -10 10 0 6 5 10 10 10 6 0 10 -4 10 -10z m148 -22 c-3 -36 -15 -42 -31
-17 -13 21 -2 49 18 49 12 0 15 -8 13 -32z m2145 18 c4 -10 1 -13 -8 -9 -8 3
-12 9 -9 14 7 12 11 11 17 -5z m247 -30 c0 -22 -36 -8 -37 15 -2 16 1 17 18 9
10 -6 19 -17 19 -24z m-2705 14 c3 -5 1 -10 -4 -10 -6 0 -11 5 -11 10 0 6 2
10 4 10 3 0 8 -4 11 -10z m2851 -49 c-4 -6 -22 -10 -39 -10 -18 1 -24 3 -14 6
9 2 17 9 17 14 0 6 -4 7 -10 4 -5 -3 -18 -1 -27 4 -16 9 -16 10 5 11 12 0 21
3 21 8 -4 23 4 24 27 0 15 -14 23 -31 20 -37z m-510 22 c-10 -10 -19 5 -10 18
6 11 8 11 12 0 2 -7 1 -15 -2 -18z m-589 11 c-3 -3 -12 -4 -19 -1 -8 3 -5 6 6
6 11 1 17 -2 13 -5z m323 -14 c11 -11 24 -20 29 -20 6 0 13 -5 16 -10 4 -7 -2
-9 -18 -5 -19 5 -25 2 -30 -15 -4 -14 -10 -19 -18 -15 -7 5 -10 3 -7 -6 3 -8
15 -13 26 -12 15 2 20 -2 16 -12 -3 -7 -12 -11 -20 -8 -9 3 -12 0 -9 -9 8 -21
-37 -68 -64 -68 -27 0 -91 65 -91 92 0 20 26 24 50 8 12 -7 8 -10 -15 -10 -28
0 -28 -1 -12 -17 16 -16 18 -16 33 -1 17 17 11 63 -7 53 -5 -4 -9 -2 -9 4 0
11 32 31 48 31 6 0 13 -11 16 -25 4 -14 11 -25 16 -25 14 0 12 14 -2 28 -10
10 -8 14 11 19 24 6 24 6 3 14 -12 5 -22 13 -22 19 0 17 39 11 60 -10z m470 5
c0 -8 -2 -15 -4 -15 -2 0 -6 7 -10 15 -3 8 -1 15 4 15 6 0 10 -7 10 -15z m200
5 c0 -5 -2 -10 -4 -10 -3 0 -8 5 -11 10 -3 6 -1 10 4 10 6 0 11 -4 11 -10z
m2523 3 c-7 -2 -19 -2 -25 0 -7 3 -2 5 12 5 14 0 19 -2 13 -5z m-4506 -18 c8
-22 -6 -33 -17 -15 -8 13 -10 12 -10 -2 0 -20 -15 -24 -25 -8 -8 14 13 40 32
40 7 0 16 -7 20 -15z m-746 -31 c12 -15 12 -17 0 -9 -10 5 -12 4 -7 -3 4 -7
15 -12 26 -12 14 0 18 -8 18 -35 0 -34 -19 -48 -33 -25 -3 6 -1 10 4 10 6 0
11 5 11 10 0 6 -11 8 -26 4 -18 -5 -25 -3 -20 4 4 7 -2 9 -18 6 -18 -3 -28 2
-36 15 -15 29 -12 39 13 43 12 2 21 9 19 16 -3 17 29 1 49 -24z m2244 -2 c-15
-16 -16 -15 -4 12 7 15 15 23 17 16 3 -7 -3 -19 -13 -28z m170 28 c3 -5 2 -10
-4 -10 -5 0 -13 5 -16 10 -3 6 -2 10 4 10 5 0 13 -4 16 -10z m-1325 -8 c0 -4
10 -8 22 -9 12 -1 27 -8 34 -15 11 -11 3 -13 -41 -13 -30 0 -55 3 -55 8 0 4 8
7 17 7 21 0 6 16 -22 23 -13 3 -9 5 13 6 17 0 32 -3 32 -7z m1300 -12 c13 -11
18 -20 12 -20 -6 0 -14 5 -17 11 -4 6 -17 14 -29 19 -14 6 -16 9 -5 9 9 1 26
-8 39 -19z m-1380 0 c0 -5 -4 -10 -9 -10 -6 0 -13 5 -16 10 -3 6 1 10 9 10 9
0 16 -4 16 -10z m210 -32 c0 -4 -4 -8 -10 -8 -5 0 -10 4 -10 9 0 5 -3 18 -6
28 -5 16 -4 16 10 -1 9 -11 16 -23 16 -28z m690 22 c0 -5 -4 -10 -10 -10 -5 0
-10 5 -10 10 0 6 5 10 10 10 6 0 10 -4 10 -10z m710 -31 c0 -21 -5 -29 -17
-29 -15 0 -15 2 -4 9 13 8 13 12 0 27 -12 15 -12 17 0 9 11 -6 13 -4 8 9 -4
10 -3 15 3 11 6 -3 10 -19 10 -36z m480 10 c0 -10 -4 -19 -10 -19 -5 0 -7 7
-4 15 4 8 1 15 -5 15 -6 0 -11 4 -11 10 0 5 7 7 15 4 8 -4 15 -15 15 -25z
m-2300 0 c0 -11 5 -17 10 -14 6 3 13 -1 16 -10 11 -27 -1 -26 -34 3 -31 28
-33 42 -5 42 7 0 13 -9 13 -21z m688 5 c40 -19 40 -25 3 -22 -16 1 -34 10 -40
20 -14 22 -4 23 37 2z m227 7 c3 -5 2 -12 -3 -15 -5 -3 -9 1 -9 9 0 17 3 19
12 6z m3355 -1 c0 -5 -4 -10 -10 -10 -5 0 -10 5 -10 10 0 6 5 10 10 10 6 0 10
-4 10 -10z m-4889 -21 c11 -11 30 -24 42 -29 21 -8 20 -9 -5 -9 -18 -1 -28 -6
-28 -17 0 -8 4 -13 9 -9 6 3 9 -4 8 -15 -2 -24 1 -24 -47 0 -22 11 -54 20 -71
20 l-32 0 27 -25 c17 -16 22 -25 13 -25 -8 0 -18 7 -21 16 -4 10 -14 14 -26
11 -11 -3 -20 -1 -20 4 0 5 4 9 9 9 13 0 21 40 8 40 -7 0 -1 9 13 20 22 17 41
23 88 29 6 0 21 -8 33 -20z m828 -77 c-1 -27 -1 -27 -8 3 -6 29 -7 29 -20 10
-12 -20 -12 -20 -8 1 7 35 -11 57 -41 49 l-27 -6 29 20 29 19 24 -34 c12 -19
22 -47 22 -62z m1271 82 c0 -14 -3 -14 -15 -4 -8 7 -15 14 -15 16 0 2 7 4 15
4 8 0 15 -7 15 -16z m650 -5 c0 -5 -4 -9 -10 -9 -5 0 -10 7 -10 16 0 8 5 12
10 9 6 -3 10 -10 10 -16z m442 -1 c-7 -7 -12 -8 -12 -2 0 14 12 26 19 19 2 -3
-1 -11 -7 -17z m-2777 -7 c-3 -6 -14 -10 -23 -10 -15 1 -15 2 1 6 9 2 17 9 17
15 0 6 3 9 6 5 3 -3 3 -10 -1 -16z m445 9 c0 -5 -4 -10 -10 -10 -5 0 -10 5
-10 10 0 6 5 10 10 10 6 0 10 -4 10 -10z m280 -10 c23 -23 25 -37 8 -42 -17
-6 -18 -36 -2 -42 15 -6 19 -52 5 -60 -5 -3 -11 3 -14 14 -3 11 -1 18 4 14 5
-3 9 0 9 5 0 6 -7 11 -16 11 -11 0 -15 6 -11 20 3 11 1 20 -4 20 -5 0 -9 -4
-9 -10 0 -5 -7 -10 -16 -10 -8 0 -13 4 -10 9 3 5 -1 12 -10 15 -21 8 -6 29 17
23 10 -3 26 2 36 10 16 13 15 14 -19 9 -22 -3 -38 -1 -38 5 0 6 4 8 9 5 5 -3
11 1 15 9 7 20 22 19 46 -5z m814 14 c20 -8 20 -20 0 -28 -8 -3 -12 -2 -9 3 3
6 -3 14 -12 20 -20 11 -4 15 21 5z m703 -16 c-3 -8 -6 -5 -6 6 -1 11 2 17 5
13 3 -3 4 -12 1 -19z m-2157 2 c0 -5 -8 -13 -17 -19 -17 -9 -17 -11 1 -28 10
-10 16 -13 12 -6 -3 6 -2 14 4 18 6 4 9 -4 8 -19 -2 -20 -5 -23 -21 -15 -10 6
-22 21 -27 35 -13 33 -13 32 8 37 28 8 32 7 32 -3z m923 -9 c-3 -12 -11 -17
-19 -14 -12 4 -11 8 3 19 10 7 19 14 20 14 0 0 -1 -9 -4 -19z m665 -1 c19 0
22 -4 17 -20 -5 -15 -3 -18 9 -14 10 4 16 1 16 -9 0 -18 -35 -28 -49 -14 -16
16 -49 -31 -46 -65 1 -15 -2 -28 -7 -28 -6 0 -8 6 -5 14 3 8 1 16 -5 18 -8 3
-9 11 -3 24 13 30 12 38 -7 57 -33 32 -18 48 24 26 19 -10 20 -9 15 11 -4 17
-3 20 6 11 6 -6 22 -11 35 -11z m726 -9 c19 -21 14 -41 -10 -41 -12 0 -12 -4
3 -26 l17 -26 -32 7 c-21 4 -32 3 -32 -4 0 -6 7 -11 15 -11 8 0 15 -4 15 -10
0 -17 -36 -11 -64 11 -31 25 -35 45 -5 28 15 -8 19 -8 15 0 -7 11 6 15 34 11
8 -1 12 1 8 6 -5 4 1 14 13 22 19 13 19 15 3 33 -9 10 -13 19 -7 19 5 0 18 -9
27 -19z m396 -8 c0 -20 -3 -24 -11 -16 -7 7 -9 19 -6 27 10 24 17 19 17 -11z
m-2649 4 c-1 -4 -1 -17 -2 -29 0 -22 -1 -22 -9 -3 -12 28 -12 47 1 43 6 -2 10
-7 10 -11z m442 -26 c3 -13 -3 -22 -19 -30 -20 -9 -24 -8 -24 5 0 8 5 12 10 9
7 -4 9 5 5 26 -5 27 -4 30 8 20 8 -6 17 -20 20 -30z m49 26 c-7 -8 -7 -18 -2
-27 6 -8 10 -19 9 -25 0 -14 -28 37 -29 53 0 6 7 12 16 12 12 0 14 -3 6 -13z
m928 -16 c0 -11 -4 -23 -10 -26 -6 -4 -10 5 -10 19 0 14 5 26 10 26 6 0 10 -9
10 -19z m810 4 c0 -2 -7 -5 -15 -9 -9 -3 -15 0 -15 9 0 9 6 12 15 9 8 -4 15
-7 15 -9z m3874 -1 c9 -23 7 -54 -3 -54 -12 0 -27 20 -35 48 -6 18 -3 22 12
22 11 0 23 -7 26 -16z m-6067 -16 c-3 -8 -6 -5 -6 6 -1 11 2 17 5 13 3 -3 4
-12 1 -19z m2053 12 c0 -5 -4 -10 -10 -10 -5 0 -10 5 -10 10 0 6 5 10 10 10 6
0 10 -4 10 -10z m-1223 -30 c8 -17 9 -26 1 -31 -7 -4 -1 -20 15 -44 16 -24 27
-32 30 -23 4 11 7 10 15 -1 6 -8 8 -21 4 -29 -4 -11 -1 -14 11 -9 20 8 57 -20
57 -43 0 -25 34 -67 50 -62 12 4 12 2 3 -8 -10 -11 -17 -8 -39 13 -14 15 -30
24 -35 21 -14 -8 -41 24 -32 38 11 19 13 39 2 32 -5 -3 -7 -10 -4 -15 4 -5 1
-9 -4 -9 -10 0 -15 17 -14 47 1 7 -3 10 -8 7 -13 -8 -11 -54 2 -54 6 0 9 -7 5
-15 -3 -8 -1 -15 5 -15 12 0 0 -50 -17 -71 -16 -18 -18 -45 -4 -54 6 -3 10 -1
10 4 0 13 20 14 37 3 6 -4 15 -20 18 -35 6 -21 4 -27 -8 -27 -10 0 -15 7 -12
19 2 11 -3 22 -11 25 -9 3 -12 1 -9 -4 12 -19 -21 -10 -38 10 -18 22 -24 90
-7 90 6 0 10 4 10 10 0 5 -7 7 -15 4 -8 -4 -15 -2 -15 4 0 5 7 15 15 22 18 15
21 45 3 34 -7 -5 -9 -2 -6 7 3 8 -5 22 -18 32 -21 15 -24 16 -24 2 0 -8 5 -15
11 -15 5 0 8 -4 4 -10 -3 -5 -12 -7 -21 -3 -8 3 -14 2 -13 -3 4 -21 -2 -44
-10 -44 -6 0 -6 12 -1 29 6 22 4 33 -6 41 -7 7 -16 27 -20 45 -5 26 -10 33
-25 30 -11 -2 -17 0 -14 6 4 5 10 7 15 4 4 -3 11 1 14 7 3 9 12 5 27 -12 15
-16 20 -19 16 -7 -7 19 9 24 16 5 4 -9 6 -7 6 3 1 9 -11 29 -26 44 l-28 28 27
-5 c17 -3 25 -1 21 5 -3 5 0 8 8 5 8 -3 19 -15 26 -28z m503 -4 c-8 -8 -13 -7
-20 4 -12 20 -1 33 16 19 11 -9 12 -15 4 -23z m280 10 c0 -8 7 -19 15 -26 18
-15 20 -59 3 -65 -28 -9 -44 -10 -45 -1 -4 29 -86 36 -102 9 -10 -17 -10 -17
-11 0 0 9 5 17 10 17 6 0 15 11 22 24 16 37 38 41 65 11 27 -28 48 -33 39 -9
-15 40 -19 67 -7 60 6 -4 11 -13 11 -20z m165 14 c-3 -5 -10 -10 -16 -10 -5 0
-9 5 -9 10 0 6 7 10 16 10 8 0 12 -4 9 -10z m1495 -6 c0 -8 -5 -12 -10 -9 -6
4 -8 11 -5 16 9 14 15 11 15 -7z m-3799 -9 c1 -17 -18 -17 -25 0 -4 11 -1 15
10 13 8 -2 15 -7 15 -13z m1103 0 c-4 -8 -10 -12 -15 -9 -14 8 -10 24 6 24 9
0 12 -6 9 -15z m293 -2 c0 -7 -4 -13 -8 -13 -4 0 -9 6 -12 13 -3 8 0 14 7 14
7 0 13 -6 13 -14z m1198 -2 c3 -5 2 -12 -3 -15 -5 -3 -9 1 -9 9 0 17 3 19 12
6z m2795 -1 c0 -5 -4 -10 -10 -10 -5 0 -10 5 -10 10 0 6 5 10 10 10 6 0 10 -4
10 -10z m-5630 -19 c13 -26 13 -31 -5 -31 -8 0 -19 -9 -25 -20 -6 -11 -15 -18
-20 -15 -4 3 -17 -5 -27 -18 -10 -13 -26 -24 -35 -24 -13 0 -15 4 -7 13 5 6 9
16 7 20 -3 13 12 54 21 54 4 0 12 -5 17 -10 12 -12 44 -3 44 11 0 5 -7 9 -15
9 -8 0 -15 7 -15 15 0 22 47 19 60 -4z m914 -10 c19 -20 23 -30 14 -33 -24
-10 -33 -7 -30 9 2 8 -4 24 -14 34 -28 31 0 22 30 -10z m1549 9 c-19 -22 -29
-19 -20 5 4 8 13 15 22 15 13 0 12 -3 -2 -20z m-1757 1 c-3 -5 1 -14 9 -21 13
-11 20 -11 39 0 26 14 46 7 46 -15 0 -19 -48 -31 -63 -16 -19 19 -57 14 -57
-8 0 -11 -5 -23 -10 -26 -7 -4 -7 -13 0 -26 7 -13 7 -19 0 -19 -5 0 -10 5 -10
10 0 6 -4 10 -9 10 -6 0 -9 -9 -8 -20 1 -11 5 -20 9 -20 4 0 8 -7 8 -17 0 -15
-2 -14 -20 2 -11 10 -22 26 -25 36 -4 11 -13 19 -21 19 -22 0 -17 13 16 45 26
25 32 27 40 15 5 -8 10 -10 11 -5 2 31 9 49 21 56 17 11 31 11 24 0z m1354
-10 c15 -29 12 -48 -4 -26 -8 12 -20 16 -34 13 -18 -5 -19 -4 -9 13 15 24 34
24 47 0z m72 12 c-10 -4 -5 -11 15 -24 26 -18 27 -19 6 -19 -13 0 -23 5 -23
11 0 6 -9 8 -20 4 -14 -4 -20 -2 -20 9 0 8 8 17 18 19 24 7 40 6 24 0z m548
-3 c13 -9 13 -10 0 -10 -8 0 -22 5 -30 10 -13 9 -13 10 0 10 8 0 22 -5 30 -10z
m1297 4 c-3 -3 -12 -4 -19 -1 -8 3 -5 6 6 6 11 1 17 -2 13 -5z m-3350 -26 c-3
-8 -6 -5 -6 6 -1 11 2 17 5 13 3 -3 4 -12 1 -19z m617 1 c-6 -11 -24 -2 -24
11 0 5 7 7 15 4 8 -4 12 -10 9 -15z m461 11 c3 -5 -1 -10 -9 -10 -8 0 -18 5
-21 10 -3 6 1 10 9 10 8 0 18 -4 21 -10z m555 6 c0 -2 -7 -6 -15 -10 -8 -3
-15 -1 -15 4 0 6 7 10 15 10 8 0 15 -2 15 -4z m340 -27 c0 -11 -4 -17 -10 -14
-5 3 -10 15 -10 26 0 11 5 17 10 14 6 -3 10 -15 10 -26z m-1720 11 c0 -5 -4
-10 -10 -10 -5 0 -10 5 -10 10 0 6 5 10 10 10 6 0 10 -4 10 -10z m3130 -10 c9
-16 8 -20 -5 -20 -8 0 -15 5 -15 10 0 14 -28 12 -32 -2 -3 -7 -7 -2 -10 10 -5
19 -2 22 23 22 18 0 32 -7 39 -20z m-1190 -11 c9 -15 19 -19 43 -17 25 2 34
-2 42 -19 5 -13 18 -23 29 -23 15 0 16 -3 6 -15 -9 -11 -16 -12 -25 -5 -7 6
-19 9 -26 8 -8 -2 -15 7 -17 20 -2 15 -10 22 -25 22 -18 0 -19 -2 -7 -10 8 -5
11 -12 7 -17 -9 -9 -43 32 -51 60 -6 24 11 22 24 -4z m-268 -1 c-9 -9 -15 -9
-24 0 -9 9 -7 12 12 12 19 0 21 -3 12 -12z m705 6 c-3 -3 -12 -4 -19 -1 -8 3
-5 6 6 6 11 1 17 -2 13 -5z m-168 -16 c-1 -7 -5 -24 -9 -38 -8 -24 -8 -24 -9
-2 -1 13 -7 22 -16 22 -13 0 -14 3 -3 15 16 18 38 19 37 3z m-1386 -13 c9 0
17 -4 17 -10 0 -20 -45 -10 -48 10 -2 12 0 16 5 10 4 -6 16 -11 26 -10z m1587
0 c0 -9 -6 -12 -15 -9 -8 4 -15 10 -15 15 0 5 7 9 15 9 8 0 15 -7 15 -15z
m-3236 -24 c-4 -3 -9 0 -11 7 -3 6 -10 9 -15 6 -7 -4 -8 -2 -4 5 6 9 11 9 22
0 8 -6 12 -15 8 -18z m1369 1 c-14 -25 -19 -27 -40 -18 -19 9 -20 12 -5 15 9
2 26 10 37 17 26 19 27 18 8 -14z m400 11 c-4 -11 -9 -11 -22 -1 -9 7 -18 14
-20 15 -3 2 7 2 21 1 17 -1 24 -7 21 -15z m92 7 c3 -5 2 -10 -4 -10 -5 0 -13
5 -16 10 -3 6 -2 10 4 10 5 0 13 -4 16 -10z m420 -10 c3 -5 2 -10 -4 -10 -5 0
-13 5 -16 10 -3 6 -2 10 4 10 5 0 13 -4 16 -10z m165 6 c0 -3 -4 -8 -10 -11
-5 -3 -10 -1 -10 4 0 6 5 11 10 11 6 0 10 -2 10 -4z m130 -13 c25 -21 26 -35
3 -26 -16 6 -16 5 -4 -10 7 -9 17 -15 21 -12 4 3 10 -2 14 -10 3 -8 2 -15 -3
-15 -5 0 -11 -14 -15 -31 -5 -29 -8 -30 -38 -24 -18 4 -37 13 -43 19 -5 6 -21
20 -34 31 -22 18 -22 16 6 -25 16 -25 28 -50 26 -56 -2 -6 10 -8 33 -6 24 3
34 1 30 -6 -3 -6 2 -13 11 -15 15 -4 15 -5 -2 -6 -25 -1 -48 -36 -40 -62 8
-23 2 -24 -30 -3 -29 19 -32 34 -7 35 11 0 12 2 4 6 -10 4 -10 8 -1 19 9 11 8
14 -5 14 -12 0 -16 5 -12 18 4 13 1 19 -9 19 -12 0 -14 -7 -10 -31 4 -21 3
-26 -3 -17 -12 16 -37 4 -69 -33 -24 -28 -30 -41 -13 -31 6 3 10 2 10 -3 0 -6
-7 -12 -15 -16 -12 -4 -15 3 -15 30 0 21 4 33 10 29 5 -3 15 6 22 20 9 21 9
31 0 46 -15 23 -16 42 -2 34 6 -3 10 -4 10 -1 0 3 -10 10 -22 17 -17 9 -20 9
-15 -3 4 -11 -1 -14 -19 -10 -14 2 -24 0 -24 -7 0 -6 -7 -11 -15 -11 -22 0
-36 -34 -28 -72 l6 -33 -22 27 c-28 35 -27 47 8 86 17 17 26 32 20 32 -5 0 -9
5 -9 10 0 6 9 10 21 10 11 0 17 4 14 10 -3 5 4 10 17 10 87 0 126 -1 143 -6
15 -5 17 -3 9 6 -18 18 -5 48 25 59 36 13 38 13 61 -6z m1478 -1 c6 -18 -15
-14 -22 4 -4 10 -1 14 6 12 6 -2 14 -10 16 -16z m-3025 -41 c11 7 17 7 17 -1
0 -5 -7 -10 -15 -10 -8 0 -15 -6 -15 -12 0 -14 -34 24 -51 57 -6 11 2 6 18
-12 22 -26 31 -30 46 -22z m1137 18 c0 -11 5 -17 10 -14 6 3 10 0 10 -8 0 -8
9 -22 20 -32 19 -17 19 -19 2 -31 -14 -10 -15 -15 -4 -25 18 -19 15 -32 -8
-26 -13 3 -20 0 -20 -10 0 -10 -6 -13 -16 -9 -9 3 -18 6 -20 6 -2 0 -4 7 -4
15 0 8 6 15 13 15 8 0 8 3 -2 9 -8 5 -11 16 -8 25 4 9 1 16 -5 16 -7 0 -7 4
-1 13 14 18 24 49 14 42 -5 -3 -11 -2 -14 2 -2 5 -2 2 0 -6 3 -11 1 -11 -11
-2 -8 7 -20 10 -25 6 -6 -3 -8 0 -6 8 6 14 55 36 68 30 4 -2 7 -13 7 -24z
m997 25 c-3 -3 -12 -4 -19 -1 -8 3 -5 6 6 6 11 1 17 -2 13 -5z m-3255 -21 c10
-9 18 -21 18 -26 0 -6 -10 -1 -23 11 -13 12 -27 19 -30 15 -4 -3 -7 -1 -7 5 0
17 20 15 42 -5z m124 2 c-10 -8 -24 -11 -30 -8 -6 4 0 10 14 14 36 10 37 10
16 -6z m2954 5 c12 -8 11 -10 -7 -10 -12 0 -25 5 -28 10 -8 13 15 13 35 0z
m365 -10 c22 -24 9 -27 -17 -3 -10 9 -21 13 -25 9 -4 -4 -1 -11 6 -15 23 -14
-3 -20 -28 -6 -23 12 -23 13 -5 23 28 17 49 14 69 -8z m2570 10 c3 -5 2 -10
-4 -10 -5 0 -13 5 -16 10 -3 6 -2 10 4 10 5 0 13 -4 16 -10z m-3650 -10 c4 -6
-6 -10 -22 -10 -22 0 -25 2 -13 10 19 12 27 12 35 0z m-489 -12 c5 -7 2 -9 -8
-5 -9 3 -21 0 -27 -6 -8 -8 -11 -8 -11 0 0 10 14 20 32 22 4 1 10 -4 14 -11z
m-1811 -8 c3 -5 2 -10 -4 -10 -5 0 -13 5 -16 10 -3 6 -2 10 4 10 5 0 13 -4 16
-10z m1140 1 c-17 -7 -15 -9 13 -13 18 -2 32 0 32 5 0 6 3 7 6 4 4 -4 1 -14
-6 -22 -11 -13 -15 -13 -21 -3 -6 10 -9 10 -9 1 0 -7 -8 -17 -17 -22 -15 -8
-18 -5 -17 20 2 39 2 39 22 38 14 0 14 -2 -3 -8z m-205 -15 c0 -19 -26 -40
-35 -26 -3 5 1 10 11 10 13 0 14 3 4 15 -10 12 -10 15 4 15 9 0 16 -6 16 -14z
m1968 -18 c-21 -13 -34 -9 -35 11 -2 18 1 19 23 9 18 -8 21 -14 12 -20z
m-1137 -10 c8 -15 8 -18 0 -14 -6 4 -16 16 -22 28 -8 15 -8 18 0 14 6 -4 16
-16 22 -28z m519 28 c0 -3 -4 -8 -10 -11 -5 -3 -10 -1 -10 4 0 6 5 11 10 11 6
0 10 -2 10 -4z m705 -14 c-3 -3 -11 0 -18 7 -9 10 -8 11 6 5 10 -3 15 -9 12
-12z m825 -12 c-8 -5 -19 -9 -25 -9 -5 0 -4 3 3 6 6 2 12 12 12 21 0 13 3 13
12 4 10 -10 10 -15 -2 -22z m410 -2 l0 -32 -21 21 c-22 22 -19 43 7 43 9 0 14
-11 14 -32z m-3520 12 c0 -5 -12 -10 -27 -9 -25 0 -26 1 -8 9 27 12 35 12 35
0z m136 -20 c13 -5 24 -14 24 -20 0 -15 -20 -12 -21 3 0 10 -2 10 -6 0 -2 -7
-13 -13 -23 -13 -23 0 -30 19 -17 45 7 14 12 16 15 7 2 -7 15 -17 28 -22z m44
10 c6 -11 9 -20 6 -20 -13 0 -56 24 -56 32 0 17 40 7 50 -12z m948 8 c-3 -7
-11 -13 -18 -13 -7 0 -15 6 -17 13 -3 7 4 12 17 12 13 0 20 -5 18 -12z m862 8
c0 -2 -7 -6 -15 -10 -8 -3 -15 -1 -15 4 0 6 7 10 15 10 8 0 15 -2 15 -4z m560
-16 c21 -38 -19 -70 -87 -70 -13 0 -13 3 -3 15 10 12 9 15 -5 15 -27 0 -11 24
21 31 l29 7 -27 1 c-47 2 -31 21 17 21 34 0 47 -5 55 -20z m240 -5 c21 -23 22
-27 9 -41 -24 -23 -47 -8 -47 32 0 41 7 42 38 9z m2487 3 c-3 -8 -6 -5 -6 6
-1 11 2 17 5 13 3 -3 4 -12 1 -19z m-1557 8 c0 -3 -4 -8 -10 -11 -5 -3 -10 -1
-10 4 0 6 5 11 10 11 6 0 10 -2 10 -4z m-3175 -26 c-3 -5 -13 -6 -21 -3 -12 4
-13 8 -3 14 15 9 32 2 24 -11z m1730 10 c3 -5 -1 -10 -9 -10 -9 0 -16 5 -16
10 0 6 4 10 9 10 6 0 13 -4 16 -10z m-2915 -10 c0 -5 -5 -10 -11 -10 -5 0 -7
5 -4 10 3 6 8 10 11 10 2 0 4 -4 4 -10z m674 -10 c-12 -3 -20 -12 -18 -20 12
-60 16 -75 20 -82 3 -4 -4 -8 -15 -8 -12 0 -21 -6 -21 -12 0 -7 -10 -2 -22 11
-16 16 -19 25 -10 28 6 3 12 11 12 19 0 8 7 14 16 14 8 0 12 5 9 10 -4 6 -10
8 -14 6 -11 -7 -52 24 -46 35 4 5 17 2 31 -7 21 -15 24 -15 24 -1 0 9 8 17 18
20 25 5 41 -6 16 -13z m1206 11 c0 -10 -24 -21 -48 -21 -13 0 -12 3 4 15 21
16 44 19 44 6z m147 -27 c-9 -9 -28 6 -21 18 4 6 10 6 17 -1 6 -6 8 -13 4 -17z
m193 16 c0 -5 -5 -10 -11 -10 -5 0 -7 5 -4 10 3 6 8 10 11 10 2 0 4 -4 4 -10z
m730 -4 c0 -17 -14 -29 -23 -20 -8 8 3 34 14 34 5 0 9 -6 9 -14z m578 -9 c2
-9 -4 -24 -13 -33 -9 -9 -13 -20 -8 -23 4 -3 9 -14 11 -25 3 -14 -1 -17 -12
-13 -17 7 -58 -5 -57 -16 1 -4 -2 -7 -5 -6 -4 0 -10 -5 -15 -13 -6 -10 -13 -7
-30 11 l-23 24 26 -6 c17 -5 30 -2 38 8 7 8 21 15 32 15 10 0 17 4 13 9 -3 5
-16 8 -30 5 -13 -2 -26 0 -29 5 -9 13 21 34 49 34 13 0 22 4 19 9 -9 14 5 40
19 36 6 -3 13 -12 15 -21z m-2815 -4 c8 -7 -11 -33 -24 -33 -4 0 -7 9 -6 20 1
20 17 27 30 13z m507 -19 c-6 -14 -6 -23 -2 -20 5 3 15 -10 24 -29 10 -23 11
-32 3 -28 -7 2 -17 -9 -23 -26 -11 -32 -28 -44 -18 -13 4 12 -2 21 -21 29 -14
7 -29 11 -32 9 -3 -2 -6 7 -6 20 0 16 6 24 18 24 10 0 15 5 12 10 -3 6 0 10 7
10 7 0 19 9 26 20 17 28 23 25 12 -6z m390 -25 c0 -27 -2 -29 -20 -19 -23 12
-25 25 -7 44 17 19 27 10 27 -25z m1465 -7 c-11 -11 -25 15 -19 33 7 17 8 16
16 -5 5 -13 6 -25 3 -28z m-2055 23 c0 -8 -4 -15 -9 -15 -13 0 -22 16 -14 24
11 11 23 6 23 -9z m107 -19 c1 -16 -2 -24 -8 -20 -6 3 -8 12 -5 19 2 7 -1 18
-7 25 -9 10 -9 11 3 8 8 -3 16 -17 17 -32z m143 2 c0 -6 -7 -5 -15 2 -8 7 -15
17 -15 22 0 6 7 5 15 -2 8 -7 15 -17 15 -22z m2123 12 c3 -11 2 -20 -3 -20 -4
0 -10 9 -13 20 -3 11 -2 20 3 20 4 0 10 -9 13 -20z m304 0 c3 -10 2 -11 -4 -4
-4 6 -15 14 -23 17 -11 5 -9 6 4 4 11 -1 21 -9 23 -17z m-3849 -11 c8 -12 9
-18 3 -14 -6 3 -11 1 -11 -4 0 -23 -15 -10 -16 14 -2 31 7 32 24 4z m899 5
c-3 -3 -12 -4 -19 -1 -8 3 -5 6 6 6 11 1 17 -2 13 -5z m2424 -17 c-6 -6 -20
-5 -38 1 -28 9 -27 9 10 9 22 -1 33 -5 28 -10z m-1044 -33 c-9 -10 -38 16 -31
28 4 6 13 4 22 -6 9 -8 13 -19 9 -22z m218 26 c3 -5 -1 -10 -9 -10 -9 0 -16 5
-16 10 0 6 4 10 9 10 6 0 13 -4 16 -10z m382 -6 c-3 -3 -12 -4 -19 -1 -8 3 -5
6 6 6 11 1 17 -2 13 -5z m668 -4 c3 -5 -1 -10 -10 -10 -9 0 -13 5 -10 10 3 6
8 10 10 10 2 0 7 -4 10 -10z m-3538 -15 c0 -8 -7 -15 -15 -15 -12 0 -12 3 -2
15 7 8 13 15 15 15 1 0 2 -7 2 -15z m2450 -27 c-3 -8 -6 -5 -6 6 -1 11 2 17 5
13 3 -3 4 -12 1 -19z m1271 -3 c-3 -3 -9 2 -12 12 -6 14 -5 15 5 6 7 -7 10
-15 7 -18z m1666 -2 c12 -16 14 -24 6 -21 -16 5 -46 48 -34 48 5 0 18 -12 28
-27z m387 20 c0 -5 3 -20 5 -35 3 -16 0 -28 -5 -28 -12 0 -41 40 -41 57 0 14
39 19 41 6z m-1721 -13 c0 -5 -4 -10 -10 -10 -5 0 -10 5 -10 10 0 6 5 10 10
10 6 0 10 -4 10 -10z m-1673 -22 c-3 -8 -6 -5 -6 6 -1 11 2 17 5 13 3 -3 4
-12 1 -19z m-1067 -3 c7 -9 8 -15 2 -15 -5 0 -12 7 -16 15 -7 19 -2 19 14 0z
m-405 -5 c3 -6 -3 -10 -14 -10 -12 0 -21 5 -21 10 0 13 27 13 35 0z m1011 -17
c-7 -7 -26 7 -26 19 0 6 6 6 15 -2 9 -7 13 -15 11 -17z m1254 17 c0 -5 -4 -10
-10 -10 -5 0 -10 5 -10 10 0 6 5 10 10 10 6 0 10 -4 10 -10z m200 -10 c12 -8
10 -9 -7 -7 -12 2 -26 6 -29 10 -11 11 19 8 36 -3z"/>
<path d="M5068 5164 l-28 -5 0 -1256 0 -1256 293 6 c197 3 326 10 397 22 279
43 468 133 629 297 84 87 118 134 171 242 55 109 85 202 112 341 20 104 23
151 22 360 0 218 -2 252 -26 370 -51 252 -150 442 -307 588 -81 75 -127 105
-241 160 -208 101 -347 126 -725 132 -148 2 -282 1 -297 -1z m262 -1460 c0 -8
-4 -14 -10 -14 -5 0 -10 9 -10 21 0 11 5 17 10 14 6 -3 10 -13 10 -21z"/>
<path d="M215 2610 c3 -5 8 -10 11 -10 2 0 4 5 4 10 0 6 -5 10 -11 10 -5 0 -7
-4 -4 -10z"/>
<path d="M367 2483 c-4 -3 -7 -11 -7 -17 0 -6 5 -5 12 2 6 6 9 14 7 17 -3 3
-9 2 -12 -2z"/>
<path d="M220 2289 c0 -5 5 -7 10 -4 6 3 10 8 10 11 0 2 -4 4 -10 4 -5 0 -10
-5 -10 -11z"/>
<path d="M340 2166 c0 -8 7 -17 16 -20 21 -8 26 -3 18 18 -8 20 -34 21 -34 2z"/>
<path d="M1365 2010 c-3 -5 1 -10 10 -10 9 0 13 5 10 10 -3 6 -8 10 -10 10 -2
0 -7 -4 -10 -10z"/>
<path d="M1030 1861 c0 -6 4 -13 10 -16 6 -3 7 1 4 9 -7 18 -14 21 -14 7z"/>
<path d="M850 1890 c0 -5 5 -10 10 -10 6 0 10 5 10 10 0 6 -4 10 -10 10 -5 0
-10 -4 -10 -10z"/>
<path d="M775 1800 c3 -5 10 -10 16 -10 5 0 9 5 9 10 0 6 -7 10 -16 10 -8 0
-12 -4 -9 -10z"/>
<path d="M875 1670 c3 -5 11 -10 16 -10 6 0 7 5 4 10 -3 6 -11 10 -16 10 -6 0
-7 -4 -4 -10z"/>
<path d="M950 1658 c0 -4 7 -8 15 -8 8 0 15 4 15 8 0 5 -7 9 -15 9 -8 0 -15
-4 -15 -9z"/>
<path d="M910 1650 c0 -5 5 -10 11 -10 5 0 7 5 4 10 -3 6 -8 10 -11 10 -2 0
-4 -4 -4 -10z"/>
<path d="M930 1611 c0 -5 7 -14 15 -21 16 -14 18 -10 9 14 -6 17 -24 22 -24 7z"/>
<path d="M895 1570 c21 -24 26 -25 19 -6 -3 8 -13 17 -22 21 -13 5 -13 2 3
-15z"/>
<path d="M932 1539 c-11 -18 -11 -20 0 -16 7 2 20 1 29 -4 11 -5 16 -3 16 7 0
9 -6 13 -15 9 -10 -3 -12 0 -8 10 8 22 -7 18 -22 -6z"/>
<path d="M1044 1534 c3 -9 6 -25 6 -37 0 -16 3 -18 11 -10 14 14 4 63 -12 63
-6 0 -8 -7 -5 -16z"/>
<path d="M2445 1330 c3 -5 13 -10 21 -10 8 0 14 5 14 10 0 6 -9 10 -21 10 -11
0 -17 -4 -14 -10z"/>
<path d="M1005 1350 c-3 -5 -2 -10 4 -10 5 0 13 5 16 10 3 6 2 10 -4 10 -5 0
-13 -4 -16 -10z"/>
<path d="M1367 1191 c-4 -17 -3 -21 5 -13 5 5 8 16 6 23 -3 8 -7 3 -11 -10z"/>
<path d="M1207 1189 c7 -7 15 -10 18 -7 3 3 -2 9 -12 12 -14 6 -15 5 -6 -5z"/>
<path d="M1146 1085 c7 -17 20 -20 28 -6 3 5 -1 12 -10 15 -22 9 -24 8 -18 -9z"/>
<path d="M1085 1060 c-3 -5 -2 -10 4 -10 5 0 13 5 16 10 3 6 2 10 -4 10 -5 0
-13 -4 -16 -10z"/>
<path d="M1180 1041 c0 -6 5 -13 10 -16 6 -3 10 1 10 9 0 9 -4 16 -10 16 -5 0
-10 -4 -10 -9z"/>
<path d="M1106 1028 c3 -5 10 -6 15 -3 13 9 11 12 -6 12 -8 0 -12 -4 -9 -9z"/>
<path d="M1190 999 c0 -5 5 -7 10 -4 6 3 10 8 10 11 0 2 -4 4 -10 4 -5 0 -10
-5 -10 -11z"/>
<path d="M1230 1000 c0 -5 4 -10 9 -10 6 0 13 5 16 10 3 6 -1 10 -9 10 -9 0
-16 -4 -16 -10z"/>
<path d="M670 1270 c0 -13 12 -19 26 -13 21 8 17 19 -6 19 -11 0 -20 -3 -20
-6z"/>
<path d="M265 1210 c3 -5 10 -10 16 -10 5 0 9 5 9 10 0 6 -7 10 -16 10 -8 0
-12 -4 -9 -10z"/>
<path d="M200 1201 c0 -13 28 -33 41 -29 6 2 0 12 -15 21 -14 10 -26 13 -26 8z"/>
<path d="M140 1190 c0 -5 5 -10 10 -10 6 0 10 5 10 10 0 6 -4 10 -10 10 -5 0
-10 -4 -10 -10z"/>
<path d="M171 1183 c0 -13 -6 -23 -13 -23 -6 0 -4 -7 5 -18 20 -22 22 -36 5
-26 -8 4 -8 2 1 -7 10 -10 15 -11 18 -2 3 9 12 9 30 2 14 -5 28 -8 30 -5 9 9
-16 42 -41 55 -14 8 -27 21 -29 30 -3 10 -5 8 -6 -6z"/>
<path d="M950 1119 c0 -5 5 -7 10 -4 6 3 10 8 10 11 0 2 -4 4 -10 4 -5 0 -10
-5 -10 -11z"/>
<path d="M1620 1033 c0 -5 12 -21 26 -38 16 -19 23 -23 20 -12 -3 10 -6 22 -6
25 0 4 -9 13 -20 20 -11 7 -20 9 -20 5z"/>
<path d="M1575 994 c-16 -26 -16 -26 7 -19 30 10 42 21 34 34 -11 17 -22 13
-41 -15z"/>
<path d="M1905 1050 c3 -5 11 -10 16 -10 6 0 7 5 4 10 -3 6 -11 10 -16 10 -6
0 -7 -4 -4 -10z"/>
<path d="M2405 885 c-26 -12 -20 -21 9 -16 5 1 20 -8 33 -21 l25 -23 -8 30
c-12 51 -12 51 -59 30z"/>
<path d="M2300 878 c0 -7 10 -14 21 -15 12 -1 20 -1 18 0 -2 2 -12 9 -21 16
-15 11 -18 11 -18 -1z"/>
<path d="M1370 816 c0 -8 4 -17 9 -20 5 -4 7 3 4 14 -6 23 -13 26 -13 6z"/>
<path d="M1350 779 c0 -5 5 -7 10 -4 6 3 10 8 10 11 0 2 -4 4 -10 4 -5 0 -10
-5 -10 -11z"/>
<path d="M1371 734 c0 -11 3 -14 6 -6 3 7 2 16 -1 19 -3 4 -6 -2 -5 -13z"/>
<path d="M350 891 c0 -6 4 -12 8 -15 5 -3 9 1 9 9 0 8 -4 15 -9 15 -4 0 -8 -4
-8 -9z"/>
<path d="M997 939 c7 -7 15 -10 18 -7 3 3 -2 9 -12 12 -14 6 -15 5 -6 -5z"/>
<path d="M443 950 c-1 -14 4 -20 18 -20 12 0 19 7 19 20 0 13 -7 20 -18 20
-11 0 -18 -8 -19 -20z"/>
<path d="M2804 758 c-27 -34 -43 -41 -60 -27 -12 10 -13 9 -8 -5 3 -9 11 -16
16 -16 6 0 7 -8 4 -17 -6 -15 -5 -15 13 1 14 12 21 14 26 6 4 -7 1 -16 -6 -21
-8 -5 -9 -9 -3 -9 5 0 16 6 22 12 10 10 15 10 22 -2 9 -13 10 -13 10 1 0 8 -4
19 -9 25 -5 5 -12 20 -16 33 -7 22 -5 24 24 18 18 -4 31 -2 31 3 0 6 -4 10 -9
10 -5 0 -16 3 -24 6 -8 3 -23 -5 -33 -18z"/>
<path d="M2750 745 c13 -16 30 -11 30 8 0 7 -4 6 -10 -3 -6 -10 -10 -11 -10
-2 0 6 -5 12 -11 12 -8 0 -8 -5 1 -15z"/>
<path d="M2660 687 c0 -7 15 -21 33 -31 l32 -19 -29 32 c-33 35 -36 36 -36 18z"/>
<path d="M2612 636 c-24 -36 -30 -63 -7 -32 15 20 15 20 31 0 16 -20 16 -13
-2 31 -5 11 -1 14 12 9 11 -3 15 -2 9 3 -5 4 -12 11 -15 15 -3 4 -15 -8 -28
-26z"/>
<path d="M2501 618 c0 -10 -5 -18 -11 -18 -5 0 -10 -8 -10 -17 0 -16 1 -16 16
-1 9 8 14 24 11 34 -4 17 -5 17 -6 2z"/>
<path d="M1565 690 c3 -5 8 -10 11 -10 2 0 4 5 4 10 0 6 -5 10 -11 10 -5 0 -7
-4 -4 -10z"/>
<path d="M2627 323 c-10 -9 -9 -33 1 -33 4 0 8 9 8 20 0 23 0 22 -9 13z"/>
<path d="M2796 231 c-4 -7 -5 -15 -2 -18 9 -9 19 4 14 18 -4 11 -6 11 -12 0z"/>
<path d="M1708 318 c-10 -10 -14 -18 -9 -18 10 0 36 29 30 34 -2 1 -12 -6 -21
-16z"/>
<path d="M3975 311 c-3 -5 -1 -12 5 -16 5 -3 10 1 10 9 0 18 -6 21 -15 7z"/>
<path d="M3295 229 c-9 -13 -6 -16 30 -25 l30 -7 -19 22 c-21 23 -32 26 -41
10z"/>
<path d="M4315 180 c-3 -5 1 -10 9 -10 8 0 18 5 21 10 3 6 -1 10 -9 10 -8 0
-18 -4 -21 -10z"/>
<path d="M2356 95 c4 -8 10 -15 15 -15 4 0 6 7 3 15 -4 8 -10 15 -15 15 -4 0
-6 -7 -3 -15z"/>
<path d="M450 2042 c0 -5 7 -9 15 -9 8 0 15 4 15 9 0 4 -7 8 -15 8 -8 0 -15
-4 -15 -8z"/>
<path d="M481 2023 c-7 -8 -11 -16 -8 -19 2 -2 10 2 17 11 17 20 9 27 -9 8z"/>
<path d="M290 2011 c0 -10 26 -9 36 2 4 4 -2 7 -14 7 -12 0 -22 -4 -22 -9z"/>
<path d="M352 2009 c2 -7 10 -15 17 -17 8 -3 12 1 9 9 -2 7 -10 15 -17 17 -8
3 -12 -1 -9 -9z"/>
<path d="M451 1990 c-5 -3 -3 -10 4 -17 10 -9 17 -8 30 7 16 18 16 19 -4 17
-12 -1 -26 -4 -30 -7z"/>
<path d="M394 1979 c-7 -12 15 -31 28 -23 4 3 8 12 8 20 0 17 -26 19 -36 3z"/>
<path d="M692 1898 c-8 -8 -9 -15 -1 -25 17 -20 25 -16 25 12 0 28 -6 31 -24
13z"/>
<path d="M1 1789 l-1 -75 39 -26 c30 -20 48 -24 81 -21 34 3 42 1 37 -10 -5
-13 0 -13 29 -5 21 5 40 6 47 0 7 -5 23 -5 37 -1 14 4 20 7 13 8 -6 1 -15 15
-18 33 -7 30 -8 31 -21 13 -7 -10 -11 -22 -8 -26 3 -5 -2 -9 -10 -9 -9 0 -16
5 -16 10 0 6 5 10 10 10 6 0 10 5 10 11 0 5 -4 7 -10 4 -5 -3 -10 -1 -10 4 0
6 5 11 12 11 6 0 9 2 6 5 -3 3 -17 0 -32 -6 -24 -11 -29 -10 -54 14 -16 15
-37 27 -48 27 -18 0 -70 55 -86 90 -4 8 -7 -19 -7 -61z"/>
<path d="M95 1801 c-3 -5 -1 -12 5 -16 5 -3 10 1 10 9 0 18 -6 21 -15 7z"/>
<path d="M242 1798 c-7 -7 -12 -21 -12 -32 0 -19 2 -18 13 4 8 14 19 24 26 22
7 -1 10 2 6 8 -8 13 -18 13 -33 -2z"/>
<path d="M472 1715 c-1 -20 3 -25 22 -25 14 0 31 -3 40 -6 12 -5 15 0 14 20
-2 17 -8 26 -20 26 -11 0 -15 -5 -12 -15 8 -21 -2 -19 -23 5 -18 19 -19 19
-21 -5z"/>
<path d="M274 1704 c3 -9 6 -20 6 -26 0 -6 6 -5 15 2 13 11 14 10 9 -4 -3 -9
-2 -16 4 -16 6 0 9 8 7 18 -1 9 -8 16 -14 15 -6 -2 -11 4 -11 12 0 8 -5 15
-11 15 -6 0 -8 -7 -5 -16z"/>
<path d="M9 1675 c0 -6 -2 -19 -4 -29 -3 -18 -2 -18 13 -3 13 13 14 20 4 29
-7 7 -12 8 -13 3z"/>
<path d="M341 1634 c0 -11 3 -14 6 -6 3 7 2 16 -1 19 -3 4 -6 -2 -5 -13z"/>
<path d="M323 1608 c12 -13 24 -19 26 -15 1 5 -5 15 -15 22 -29 22 -36 17 -11
-7z"/>
<path d="M378 1573 c6 -2 18 -2 25 0 6 3 1 5 -13 5 -14 0 -19 -2 -12 -5z"/>
<path d="M116 1501 c-4 -7 -5 -15 -2 -18 9 -9 19 4 14 18 -4 11 -6 11 -12 0z"/>
<path d="M90 1445 c0 -9 6 -12 15 -9 8 4 12 10 9 15 -8 14 -24 10 -24 -6z"/>
<path d="M36 1344 c-5 -14 -4 -15 9 -4 17 14 19 20 6 20 -5 0 -12 -7 -15 -16z"/>
<path d="M402 1348 c-14 -14 -16 -28 -3 -28 5 0 11 9 14 20 6 23 5 24 -11 8z"/>
<path d="M476 1279 c-23 -33 -33 -39 -52 -35 -12 3 -26 2 -29 -4 -4 -6 7 -10
25 -10 37 0 73 -17 65 -31 -11 -16 0 -10 18 12 18 20 18 21 0 15 -10 -3 -24
-2 -31 2 -9 7 -6 15 13 36 14 15 25 34 25 42 0 20 -1 19 -34 -27z"/>
<path d="M410 1300 c-8 -5 -10 -10 -5 -10 6 0 4 -4 -3 -9 -11 -6 -9 -9 6 -13
15 -4 20 0 20 18 0 13 -1 24 -2 24 0 0 -8 -5 -16 -10z"/>
<path d="M498 1173 c7 -3 16 -2 19 1 4 3 -2 6 -13 5 -11 0 -14 -3 -6 -6z"/>
<path d="M427 1104 c6 -15 23 -19 23 -5 0 5 -7 11 -14 14 -10 4 -13 1 -9 -9z"/>
<path d="M496 1105 c-3 -8 -1 -15 3 -15 5 0 11 7 15 15 3 8 1 15 -3 15 -5 0
-11 -7 -15 -15z"/>
<path d="M457 1065 c3 -8 9 -12 14 -9 12 7 11 11 -5 17 -10 4 -13 1 -9 -8z"/>
<path d="M135 820 c-3 -5 -1 -10 4 -10 6 0 11 5 11 10 0 6 -2 10 -4 10 -3 0
-8 -4 -11 -10z"/>
<path d="M47 799 c7 -7 15 -10 18 -7 3 3 -2 9 -12 12 -14 6 -15 5 -6 -5z"/>
<path d="M760 771 c0 -6 4 -13 10 -16 6 -3 7 1 4 9 -7 18 -14 21 -14 7z"/>
<path d="M5 700 c-3 -5 -2 -10 4 -10 5 0 13 5 16 10 3 6 2 10 -4 10 -5 0 -13
-4 -16 -10z"/>
<path d="M324 692 c-12 -8 -37 -52 -32 -57 2 -1 13 1 26 6 15 6 22 17 22 34 0
28 0 28 -16 17z"/>
<path d="M740 665 c-7 -8 -8 -15 -2 -15 5 0 15 7 22 15 7 8 8 15 2 15 -5 0
-15 -7 -22 -15z"/>
<path d="M13 663 c-9 -3 -13 -26 -13 -68 0 -60 1 -63 29 -75 24 -10 33 -9 55
5 14 10 33 15 41 11 8 -3 15 -1 15 4 0 5 8 7 18 4 14 -5 15 -4 2 5 -12 9 -13
11 -1 11 8 0 12 3 8 6 -3 3 -12 2 -19 -2 -51 -33 -114 -34 -134 -3 -5 8 -3 10
6 4 9 -5 10 -2 5 15 -4 12 -8 33 -10 46 -2 19 0 22 11 13 11 -9 14 -8 14 4 0
19 -10 26 -27 20z"/>
<path d="M226 651 c-3 -5 1 -11 9 -15 8 -3 15 -1 15 4 0 13 -18 22 -24 11z"/>
<path d="M1045 630 c-3 -5 -1 -10 4 -10 6 0 11 5 11 10 0 6 -2 10 -4 10 -3 0
-8 -4 -11 -10z"/>
<path d="M260 620 c0 -5 9 -10 20 -10 11 0 21 -4 21 -10 1 -5 2 -13 4 -17 13
-51 18 -63 24 -63 3 0 15 -7 25 -15 16 -12 17 -17 6 -30 -7 -8 -9 -15 -4 -15
4 0 0 -6 -9 -12 -15 -12 -14 -15 3 -37 11 -13 20 -18 20 -13 0 6 -4 14 -10 17
-13 8 -13 25 0 25 12 0 41 -55 33 -64 -4 -3 -2 -6 4 -6 6 0 16 7 23 15 7 8 9
15 6 15 -4 0 -1 7 8 15 20 21 29 19 23 -5 -5 -18 -4 -18 20 -3 24 16 26 16 39
-2 8 -10 14 -24 14 -31 0 -6 7 -14 15 -18 8 -3 15 -13 15 -22 0 -12 6 -15 25
-10 24 6 36 -9 13 -16 -8 -3 -6 -14 7 -35 10 -18 24 -29 32 -26 7 3 11 9 8 13
-3 5 -1 11 5 15 17 10 12 35 -6 28 -14 -5 -15 -3 -5 15 17 31 25 33 64 17 26
-11 37 -23 42 -45 6 -27 15 -35 38 -31 5 1 6 -3 3 -8 -4 -5 -2 -12 4 -16 5 -3
10 -1 10 4 0 19 18 12 25 -9 3 -11 15 -20 25 -20 27 0 67 24 62 38 -2 6 0 12
5 12 15 0 13 38 -2 44 -10 3 -12 0 -9 -12 4 -10 -4 -6 -20 11 -19 20 -32 26
-49 22 -30 -8 -97 55 -97 90 0 13 -4 27 -10 30 -5 3 -10 0 -10 -9 0 -8 -3 -21
-6 -29 -3 -10 2 -18 15 -22 12 -3 21 -13 21 -21 0 -11 -5 -12 -17 -6 -10 5
-24 7 -31 5 -8 -3 -10 1 -6 11 8 21 -3 66 -16 66 -6 0 -10 -6 -10 -14 0 -8 -8
-17 -17 -19 -17 -4 -17 -5 0 -6 25 -2 22 -40 -5 -50 -27 -10 -39 -4 -18 9 11
7 12 10 2 10 -7 0 -20 -7 -28 -15 -9 -8 -20 -15 -25 -15 -6 0 -3 7 6 16 20 20
4 35 -28 26 -14 -3 -18 -1 -13 6 4 7 2 12 -3 12 -6 0 -17 16 -25 35 -8 19 -22
35 -30 35 -9 0 -16 5 -16 10 0 16 -30 12 -36 -5 -4 -8 -17 -15 -30 -15 -21 0
-23 2 -13 26 10 29 3 47 -10 25 -7 -11 -13 -9 -31 9 -12 12 -19 24 -16 28 4 3
12 -3 20 -13 8 -12 15 -14 20 -7 3 6 2 13 -4 17 -14 9 -12 21 6 40 16 15 16
18 0 33 -11 11 -16 12 -16 4 0 -7 -5 -10 -11 -6 -6 3 -15 1 -19 -6 -6 -10 -13
-9 -31 4 -27 18 -39 20 -39 6z m168 -187 c-4 -23 -21 -26 -34 -5 -10 15 -8 18
13 20 18 1 24 -2 21 -15z"/>
<path d="M228 603 c7 -3 16 -2 19 1 4 3 -2 6 -13 5 -11 0 -14 -3 -6 -6z"/>
<path d="M940 595 c-7 -9 -8 -15 -2 -15 5 0 12 7 16 15 3 8 4 15 2 15 -2 0 -9
-7 -16 -15z"/>
<path d="M190 590 c-9 -6 -10 -10 -3 -10 6 0 15 5 18 10 8 12 4 12 -15 0z"/>
<path d="M401 574 c0 -11 3 -14 6 -6 3 7 2 16 -1 19 -3 4 -6 -2 -5 -13z"/>
<path d="M43 553 c9 -2 23 -2 30 0 6 3 -1 5 -18 5 -16 0 -22 -2 -12 -5z"/>
<path d="M1447 543 c6 -15 29 -18 37 -4 3 5 -5 11 -18 13 -17 4 -23 1 -19 -9z"/>
<path d="M468 543 c7 -3 16 -2 19 1 4 3 -2 6 -13 5 -11 0 -14 -3 -6 -6z"/>
<path d="M240 530 c0 -5 5 -10 11 -10 5 0 7 5 4 10 -3 6 -8 10 -11 10 -2 0 -4
-4 -4 -10z"/>
<path d="M485 520 c-9 -14 0 -23 26 -25 11 -1 25 7 30 17 9 17 8 18 -11 6 -17
-11 -22 -11 -29 1 -6 10 -10 10 -16 1z"/>
<path d="M850 520 c0 -5 5 -10 10 -10 6 0 10 5 10 10 0 6 -4 10 -10 10 -5 0
-10 -4 -10 -10z"/>
<path d="M600 510 c0 -5 5 -10 10 -10 6 0 10 5 10 10 0 6 -4 10 -10 10 -5 0
-10 -4 -10 -10z"/>
<path d="M198 503 c-26 -7 -22 -18 19 -57 38 -35 60 -41 30 -8 -10 10 -17 26
-17 35 0 9 -5 17 -11 17 -5 0 -7 5 -4 10 3 6 5 9 3 9 -2 -1 -11 -3 -20 -6z"/>
<path d="M6 478 c7 -11 34 -10 34 1 0 6 -9 9 -19 8 -11 0 -17 -5 -15 -9z"/>
<path d="M680 470 c0 -5 5 -10 11 -10 5 0 7 5 4 10 -3 6 -8 10 -11 10 -2 0 -4
-4 -4 -10z"/>
<path d="M0 432 c0 -29 26 -62 48 -62 9 0 9 -5 0 -20 -16 -25 -31 -26 -23 -1
3 10 -1 24 -10 31 -13 11 -15 6 -15 -43 0 -34 5 -58 13 -61 10 -5 10 -7 0 -12
-18 -8 -16 -27 2 -20 8 3 15 2 15 -3 0 -5 14 -11 30 -13 17 -3 30 0 30 5 0 6
3 7 7 3 5 -4 -1 -15 -12 -23 -16 -12 -16 -14 -3 -10 10 3 20 2 23 -3 4 -6 -8
-10 -25 -10 -20 0 -29 -4 -24 -11 3 -6 17 -9 30 -6 13 2 21 1 19 -3 -5 -9 52
-26 85 -25 19 0 25 6 26 23 1 19 -4 22 -33 22 -20 0 -32 -4 -28 -10 3 -5 12
-10 20 -10 8 0 17 -5 20 -10 9 -15 -46 -1 -64 16 -15 14 -8 17 72 28 31 4 38
2 33 -9 -7 -19 8 -19 24 0 7 8 19 15 26 15 20 0 17 30 -3 46 -16 12 -15 13 10
14 17 0 27 5 27 15 0 8 8 15 18 16 9 0 12 3 5 5 -8 4 -6 11 8 25 23 23 25 41
4 33 -8 -4 -12 -10 -9 -15 5 -8 -8 -13 -31 -10 -6 0 -19 -12 -29 -28 -18 -26
-55 -34 -39 -8 3 6 -14 -1 -39 -15 l-46 -25 7 26 c10 36 9 41 -17 84 -23 35
-42 48 -42 27 0 -5 -5 -10 -11 -10 -5 0 -7 4 -4 10 3 5 -12 12 -35 16 -42 7
-47 13 -28 32 9 9 7 12 -10 12 -18 0 -22 -6 -22 -28z m97 -95 l1 -42 -13 30
c-9 21 -10 34 -3 43 6 6 11 12 12 12 0 0 2 -19 3 -43z"/>
<path d="M933 453 c-35 -5 -46 -23 -14 -23 11 0 26 -2 33 -5 9 -4 14 2 15 15
1 11 1 19 0 18 -1 0 -17 -3 -34 -5z"/>
<path d="M750 440 c0 -5 5 -10 10 -10 6 0 10 5 10 10 0 6 -4 10 -10 10 -5 0
-10 -4 -10 -10z"/>
<path d="M780 435 c0 -7 30 -13 34 -7 3 4 -4 9 -15 9 -10 1 -19 0 -19 -2z"/>
<path d="M601 404 c0 -11 3 -14 6 -6 3 7 2 16 -1 19 -3 4 -6 -2 -5 -13z"/>
<path d="M923 396 c1 -11 9 -21 17 -23 10 -3 11 -2 4 4 -6 4 -14 15 -17 23 -5
11 -6 9 -4 -4z"/>
<path d="M1425 400 c-3 -5 1 -10 10 -10 9 0 13 5 10 10 -3 6 -8 10 -10 10 -2
0 -7 -4 -10 -10z"/>
<path d="M192 371 c-11 -6 -10 -10 0 -19 11 -8 14 -7 14 9 0 10 0 19 -1 19 0
0 -6 -4 -13 -9z"/>
<path d="M416 362 c-4 -11 -18 -25 -31 -32 -33 -18 -31 -25 7 -28 42 -3 115
-46 123 -72 3 -11 11 -20 17 -20 6 0 3 12 -7 26 -9 14 -15 27 -13 29 2 1 14 8
26 15 l24 12 -24 16 c-12 9 -29 23 -37 30 -13 13 -16 12 -20 -1 -5 -14 -9 -14
-31 3 -21 16 -22 20 -7 20 10 0 15 5 12 10 -10 16 -33 11 -39 -8z"/>
<path d="M1275 360 c-3 -5 1 -10 9 -10 9 0 16 5 16 10 0 6 -4 10 -9 10 -6 0
-13 -4 -16 -10z"/>
<path d="M1509 337 c6 -8 7 -18 3 -22 -4 -5 -1 -5 6 -1 10 6 10 11 1 22 -6 8
-14 14 -16 14 -3 0 0 -6 6 -13z"/>
<path d="M3785 340 c-3 -5 1 -10 10 -10 9 0 13 5 10 10 -3 6 -8 10 -10 10 -2
0 -7 -4 -10 -10z"/>
<path d="M3840 266 c0 -9 5 -16 10 -16 6 0 10 4 10 9 0 6 -4 13 -10 16 -5 3
-10 -1 -10 -9z"/>
<path d="M542 263 c-10 -4 -10 -8 -1 -19 13 -16 39 -19 39 -4 0 6 -3 9 -7 9
-20 -3 -26 2 -13 11 16 10 4 12 -18 3z"/>
<path d="M1510 239 c0 -11 5 -17 10 -14 6 3 10 13 10 21 0 8 -4 14 -10 14 -5
0 -10 -9 -10 -21z"/>
<path d="M330 236 c0 -2 7 -6 15 -10 8 -3 15 -1 15 4 0 6 -7 10 -15 10 -8 0
-15 -2 -15 -4z"/>
<path d="M473 215 c-3 -9 -3 -18 -1 -21 3 -3 8 4 11 16 6 23 -1 27 -10 5z"/>
<path d="M0 207 c0 -8 9 -17 21 -20 15 -4 19 -1 17 11 -4 21 -38 29 -38 9z"/>
<path d="M553 207 c-5 -11 -7 -38 -2 -65 4 -28 3 -52 -3 -59 -6 -7 -7 -13 -3
-13 4 0 2 -7 -5 -15 -11 -13 -8 -14 19 -9 18 4 31 2 31 -4 0 -12 50 -46 57
-38 4 3 -1 14 -11 25 -9 10 -18 27 -20 37 -2 11 -11 38 -19 62 -8 23 -11 44
-7 47 10 6 7 32 -5 42 -4 4 -5 2 -1 -4 4 -7 3 -13 -3 -13 -5 0 -11 6 -13 12
-3 8 -8 6 -15 -5z"/>
<path d="M1633 213 c4 -3 1 -13 -5 -22 -10 -12 -7 -12 8 2 11 9 24 14 27 10 4
-3 7 -1 7 5 0 7 -10 12 -22 12 -12 0 -18 -3 -15 -7z"/>
<path d="M3840 206 c0 -8 5 -18 10 -21 6 -3 10 -11 10 -16 0 -6 -4 -7 -10 -4
-5 3 -10 -1 -10 -10 0 -9 4 -14 9 -10 5 3 12 1 16 -4 9 -16 31 -2 31 19 0 22
-11 27 -20 8 -3 -7 -4 0 -3 17 1 21 -3 31 -15 33 -11 2 -18 -3 -18 -12z"/>
<path d="M638 198 c6 -6 18 -8 28 -6 14 3 12 5 -9 10 -19 3 -25 2 -19 -4z"/>
<path d="M778 203 c7 -3 16 -2 19 1 4 3 -2 6 -13 5 -11 0 -14 -3 -6 -6z"/>
<path d="M1281 188 c-12 -34 7 -70 33 -63 21 6 21 6 2 -9 -19 -16 -19 -16 2
-39 26 -27 28 -37 7 -37 -8 0 -15 5 -15 10 0 6 -7 10 -16 10 -10 0 -14 6 -11
15 4 8 2 17 -3 20 -5 3 -11 -4 -15 -15 -7 -23 -21 -26 -28 -7 -2 6 -6 -7 -8
-30 -3 -31 -1 -43 8 -43 7 0 13 9 13 19 0 27 21 31 49 10 13 -11 31 -19 40
-19 13 0 13 2 2 9 -9 6 -10 11 -2 15 18 11 51 -4 51 -22 0 -15 2 -15 10 -2 5
8 10 11 10 5 0 -5 14 -11 30 -12 17 -1 30 2 30 8 0 6 5 7 10 4 6 -3 10 1 10
10 0 13 -4 14 -20 5 -17 -9 -22 -7 -30 12 -6 17 -9 19 -9 6 -1 -22 -21 -24
-21 -3 0 9 10 20 23 25 21 8 18 12 -13 14 -8 1 -16 7 -16 14 -1 6 -2 19 -3 27
0 8 -7 15 -14 15 -8 0 -30 16 -50 35 -20 19 -39 35 -42 35 -3 0 -9 -10 -14
-22z m99 -92 c0 -8 -4 -18 -10 -21 -5 -3 -10 3 -10 14 0 12 5 21 10 21 6 0 10
-6 10 -14z"/>
<path d="M1440 205 c0 -2 10 -10 23 -16 20 -11 21 -11 8 4 -13 16 -31 23 -31
12z"/>
<path d="M270 192 c0 -5 -9 -18 -21 -30 -13 -15 -18 -29 -14 -42 7 -21 25 -28
25 -9 0 6 9 9 20 6 18 -5 20 -2 13 16 -4 12 -7 32 -6 45 0 12 -3 22 -8 22 -5
0 -9 -4 -9 -8z"/>
<path d="M1400 188 c0 -31 50 -52 65 -28 4 6 3 10 -2 9 -18 -3 -32 2 -47 17
-13 12 -16 12 -16 2z"/>
<path d="M1563 185 c0 -8 4 -15 9 -15 4 0 8 4 8 9 0 6 -4 12 -8 15 -5 3 -9 -1
-9 -9z"/>
<path d="M1996 165 c-3 -8 -1 -15 4 -15 6 0 10 7 10 15 0 8 -2 15 -4 15 -2 0
-6 -7 -10 -15z"/>
<path d="M54 149 c-3 -6 -16 -8 -29 -5 -20 5 -22 2 -21 -32 1 -46 17 -57 27
-18 4 15 16 37 25 47 9 10 14 19 11 19 -3 0 -9 -5 -13 -11z"/>
<path d="M920 154 c0 -12 24 -50 39 -61 15 -11 15 -12 0 -13 -9 0 -20 -8 -23
-17 -6 -15 -9 -15 -17 -3 -9 12 -10 12 -5 -3 3 -10 1 -27 -5 -38 -9 -19 -8
-20 18 -17 24 3 28 7 25 31 -2 15 1 27 7 27 10 0 15 -20 12 -47 -1 -7 3 -13 9
-13 5 0 10 5 10 10 0 6 5 10 11 10 5 0 8 -4 4 -9 -3 -6 3 -9 13 -8 29 2 24 32
-5 34 -26 1 -46 20 -37 35 3 4 -7 25 -22 48 -25 38 -34 47 -34 34z"/>
<path d="M1555 150 c-3 -5 1 -23 10 -40 17 -32 11 -38 -17 -16 -10 7 -14 17
-10 21 4 5 -1 5 -10 2 -12 -4 -18 -1 -18 8 0 9 -9 15 -22 15 -18 0 -20 -2 -9
-9 9 -6 14 -24 13 -46 -1 -22 4 -38 12 -41 8 -3 12 -14 9 -25 -4 -14 0 -19 15
-19 12 0 24 5 28 11 4 8 -1 9 -17 4 -22 -7 -23 -7 -9 11 8 10 16 21 17 23 1 2
10 -2 20 -10 11 -9 14 -10 9 -1 -4 6 -2 13 3 13 6 1 16 3 21 4 6 1 15 3 20 4
6 0 10 13 10 29 0 20 -3 23 -10 12 -5 -8 -12 -11 -16 -7 -4 3 -1 14 6 22 7 9
9 15 4 14 -31 -6 -56 2 -50 16 6 17 0 20 -9 5z"/>
<path d="M1643 136 c3 -6 10 -10 16 -8 7 1 22 -3 34 -10 19 -10 20 -9 9 4 -15
19 -65 31 -59 14z"/>
<path d="M4070 139 c0 -5 5 -7 10 -4 6 3 10 8 10 11 0 2 -4 4 -10 4 -5 0 -10
-5 -10 -11z"/>
<path d="M95 130 c-3 -5 -16 -10 -27 -10 -12 0 -18 -3 -15 -6 3 -4 -5 -26 -18
-49 -32 -53 -31 -65 3 -65 32 0 42 7 65 42 16 26 14 63 -4 52 -5 -3 -5 6 1 20
9 26 7 35 -5 16z m2 -66 c-3 -3 -12 -4 -19 -1 -8 3 -5 6 6 6 11 1 17 -2 13 -5z
m-7 -28 c0 -2 -9 -6 -20 -9 -11 -3 -20 -1 -20 4 0 5 9 9 20 9 11 0 20 -2 20
-4z"/>
<path d="M668 123 c6 -2 18 -2 25 0 6 3 1 5 -13 5 -14 0 -19 -2 -12 -5z"/>
<path d="M810 126 c0 -2 7 -6 15 -10 8 -3 15 -1 15 4 0 6 -7 10 -15 10 -8 0
-15 -2 -15 -4z"/>
<path d="M2620 120 c0 -5 5 -10 10 -10 6 0 10 5 10 10 0 6 -4 10 -10 10 -5 0
-10 -4 -10 -10z"/>
<path d="M175 110 c-3 -5 -4 -14 0 -19 3 -5 1 -12 -5 -16 -12 -8 -13 -25 -1
-25 5 0 11 9 14 20 4 15 10 18 24 13 15 -6 16 -4 6 9 -7 8 -10 18 -6 21 3 4
-1 7 -10 7 -9 0 -19 -4 -22 -10z"/>
<path d="M797 109 c7 -7 15 -10 18 -7 3 3 -2 9 -12 12 -14 6 -15 5 -6 -5z"/>
<path d="M322 96 c16 -12 16 -15 2 -35 -15 -21 -15 -22 2 -19 14 2 18 -2 17
-19 -2 -13 2 -23 9 -23 6 0 8 3 4 7 -3 4 6 12 21 19 26 11 26 12 6 13 -22 1
-27 10 -24 38 2 13 -16 26 -39 30 -12 1 -11 -1 2 -11z"/>
<path d="M273 84 c-3 -8 -1 -20 6 -27 8 -8 11 -8 11 0 0 6 3 18 6 27 3 9 1 16
-5 16 -7 0 -14 -7 -18 -16z"/>
<path d="M440 84 c0 -12 -6 -15 -21 -11 -16 4 -18 3 -8 -9 6 -8 18 -14 26 -14
7 0 16 -6 19 -13 3 -8 18 -13 35 -12 21 1 28 -2 25 -12 -4 -9 4 -13 29 -13 37
0 48 9 36 28 -9 15 -41 5 -41 -12 0 -6 -5 -4 -10 4 -5 8 -7 23 -4 33 7 23 -22
46 -58 47 -19 0 -28 -5 -28 -16z"/>
<path d="M224 78 c-4 -6 -7 -26 -8 -45 -1 -29 2 -33 26 -33 15 0 30 5 34 12 5
8 2 9 -10 5 -16 -6 -18 -2 -14 28 4 35 -14 56 -28 33z"/>
<path d="M1700 75 c-7 -9 -19 -14 -27 -11 -9 4 -11 1 -7 -6 5 -8 2 -9 -10 -5
-21 8 -50 -18 -42 -38 3 -10 19 -15 46 -15 34 0 42 4 50 25 5 14 16 28 25 31
12 5 12 8 0 20 -17 18 -20 17 -35 -1z"/>
<path d="M2083 63 c-18 -38 -16 -54 2 -19 9 16 14 33 13 37 -2 5 -9 -4 -15
-18z"/>
<path d="M2140 79 c0 -5 5 -7 10 -4 6 3 10 8 10 11 0 2 -4 4 -10 4 -5 0 -10
-5 -10 -11z"/>
<path d="M3921 45 c-15 -42 -16 -41 24 -42 30 -1 33 2 25 18 -6 10 -10 25 -10
35 0 14 3 14 15 4 9 -7 18 -10 22 -6 10 10 -5 19 -36 21 -23 1 -30 -4 -40 -30z
m29 -5 c0 -5 -4 -10 -10 -10 -5 0 -10 5 -10 10 0 6 5 10 10 10 6 0 10 -4 10
-10z"/>
<path d="M770 53 c0 -4 5 -15 10 -23 8 -13 10 -13 10 2 0 9 -4 20 -10 23 -5 3
-10 3 -10 -2z"/>
<path d="M128 38 c-7 -20 18 -38 49 -37 25 2 26 2 4 6 -13 3 -26 13 -28 24 -6
22 -19 25 -25 7z"/>
<path d="M420 30 c8 -5 20 -10 25 -10 6 0 3 5 -5 10 -8 5 -19 10 -25 10 -5 0
-3 -5 5 -10z"/>
<path d="M3340 15 c0 -9 9 -15 25 -15 18 0 23 4 19 15 -8 20 -44 20 -44 0z"/>
<path d="M3990 21 c0 -6 5 -13 10 -16 6 -3 10 1 10 9 0 9 -4 16 -10 16 -5 0
-10 -4 -10 -9z"/>
<path d="M290 10 c0 -5 9 -10 21 -10 11 0 17 4 14 10 -8 13 -35 13 -35 0z"/>
<path d="M820 10 c0 -5 4 -10 9 -10 6 0 13 5 16 10 3 6 -1 10 -9 10 -9 0 -16
-4 -16 -10z"/>
<path d="M1285 10 c-3 -5 1 -10 10 -10 9 0 13 5 10 10 -3 6 -8 10 -10 10 -2 0
-7 -4 -10 -10z"/>
</g>
</svg>
